<svg xmlns="http://www.w3.org/2000/svg" xmlns:xlink="http://www.w3.org/1999/xlink" width="500" zoomAndPan="magnify" viewBox="0 0 375 374.999991" height="500" preserveAspectRatio="xMidYMid meet" version="1.0"><defs><g/></defs><rect x="-37.5" width="450" fill="#ffffff" y="-37.499999" height="449.999989" fill-opacity="1"/><rect x="-37.5" width="450" fill="#cfd9cc" y="-37.499999" height="449.999989" fill-opacity="1"/><g fill="#f9faf9" fill-opacity="1"><g transform="translate(10.283858, 176.249988)"><g><path d="M 2.21875 -18.640625 C 2.21875 -21.003906 2.804688 -22.960938 3.984375 -24.515625 C 5.171875 -26.066406 6.769531 -27.226562 8.78125 -28 C 10.800781 -28.78125 13.070312 -29.171875 15.59375 -29.171875 C 17.4375 -29.171875 19.109375 -28.976562 20.609375 -28.59375 C 22.109375 -28.207031 23.503906 -27.753906 24.796875 -27.234375 C 26.085938 -26.710938 27.34375 -26.257812 28.5625 -25.875 C 29.78125 -25.488281 31.039062 -25.296875 32.34375 -25.296875 C 32.96875 -25.296875 33.53125 -25.429688 34.03125 -25.703125 C 34.53125 -25.984375 34.78125 -26.4375 34.78125 -27.0625 C 34.78125 -27.882812 34.257812 -28.617188 33.21875 -29.265625 C 32.1875 -29.910156 30.875 -30.484375 29.28125 -30.984375 C 27.695312 -31.484375 26.015625 -31.9375 24.234375 -32.34375 C 22.460938 -32.75 20.835938 -33.132812 19.359375 -33.5 C 17.398438 -33.976562 15.484375 -34.46875 13.609375 -34.96875 C 11.742188 -35.46875 10.050781 -36.113281 8.53125 -36.90625 C 7.019531 -37.707031 5.8125 -38.765625 4.90625 -40.078125 C 4 -41.390625 3.546875 -43.0625 3.546875 -45.09375 C 3.546875 -45.757812 3.703125 -46.5625 4.015625 -47.5 C 4.335938 -48.445312 4.894531 -49.410156 5.6875 -50.390625 C 6.476562 -51.367188 7.585938 -52.285156 9.015625 -53.140625 C 10.441406 -53.992188 12.269531 -54.6875 14.5 -55.21875 C 16.738281 -55.757812 19.445312 -56.03125 22.625 -56.03125 C 24.070312 -56.03125 25.679688 -55.960938 27.453125 -55.828125 C 29.234375 -55.703125 31.03125 -55.488281 32.84375 -55.1875 C 34.65625 -54.894531 36.304688 -54.515625 37.796875 -54.046875 C 39.296875 -53.585938 40.472656 -53.007812 41.328125 -52.3125 L 39.046875 -43.984375 C 37.972656 -44.765625 36.503906 -45.46875 34.640625 -46.09375 C 32.773438 -46.71875 30.6875 -47.222656 28.375 -47.609375 C 26.0625 -48.003906 23.722656 -48.203125 21.359375 -48.203125 C 17.328125 -48.203125 14.394531 -47.71875 12.5625 -46.75 C 10.726562 -45.789062 9.8125 -44.332031 9.8125 -42.375 C 9.8125 -40.863281 10.335938 -39.617188 11.390625 -38.640625 C 12.453125 -37.660156 13.84375 -36.835938 15.5625 -36.171875 C 17.28125 -35.503906 19.171875 -34.921875 21.234375 -34.421875 C 23.304688 -33.921875 25.367188 -33.421875 27.421875 -32.921875 C 29.484375 -32.421875 31.375 -31.828125 33.09375 -31.140625 C 34.8125 -30.460938 36.195312 -29.601562 37.25 -28.5625 C 38.300781 -27.53125 38.828125 -26.21875 38.828125 -24.625 C 38.828125 -23.257812 38.484375 -22.066406 37.796875 -21.046875 C 37.117188 -20.035156 36.210938 -19.242188 35.078125 -18.671875 C 33.953125 -18.097656 32.742188 -17.789062 31.453125 -17.75 C 29.421875 -17.675781 27.503906 -17.890625 25.703125 -18.390625 C 23.910156 -18.890625 22.191406 -19.476562 20.546875 -20.15625 C 18.898438 -20.84375 17.242188 -21.453125 15.578125 -21.984375 C 13.921875 -22.523438 12.1875 -22.796875 10.375 -22.796875 C 7.894531 -22.796875 6.082031 -22.390625 4.9375 -21.578125 C 3.789062 -20.765625 3.21875 -19.632812 3.21875 -18.1875 C 3.21875 -16.15625 3.898438 -14.445312 5.265625 -13.0625 C 6.640625 -11.675781 8.476562 -10.578125 10.78125 -9.765625 C 13.09375 -8.953125 15.707031 -8.367188 18.625 -8.015625 C 21.550781 -7.660156 24.566406 -7.484375 27.671875 -7.484375 C 30.003906 -7.484375 32.296875 -7.675781 34.546875 -8.0625 C 36.804688 -8.457031 38.878906 -9.445312 40.765625 -11.03125 L 37.4375 -1.390625 C 35.957031 -0.679688 34.46875 -0.179688 32.96875 0.109375 C 31.476562 0.410156 29.789062 0.5625 27.90625 0.5625 C 24.570312 0.5625 21.359375 0.21875 18.265625 -0.46875 C 15.179688 -1.15625 12.4375 -2.242188 10.03125 -3.734375 C 7.632812 -5.234375 5.734375 -7.203125 4.328125 -9.640625 C 2.921875 -12.085938 2.21875 -15.085938 2.21875 -18.640625 Z M 2.21875 -18.640625 "/></g></g></g><g fill="#f9faf9" fill-opacity="1"><g transform="translate(52.816348, 176.249988)"><g><path d="M 1.109375 -55.46875 L 13.203125 -55.46875 C 13.015625 -54.65625 12.863281 -53.320312 12.75 -51.46875 C 12.644531 -49.625 12.582031 -47.414062 12.5625 -44.84375 C 12.539062 -42.269531 12.578125 -39.523438 12.671875 -36.609375 C 12.765625 -33.691406 12.929688 -30.734375 13.171875 -27.734375 C 13.410156 -24.734375 13.710938 -21.863281 14.078125 -19.125 C 14.453125 -16.394531 14.90625 -13.957031 15.4375 -11.8125 C 15.976562 -9.664062 16.609375 -7.960938 17.328125 -6.703125 C 18.054688 -5.453125 18.878906 -4.828125 19.796875 -4.828125 C 20.429688 -4.828125 20.929688 -4.972656 21.296875 -5.265625 C 21.671875 -5.566406 21.988281 -6.101562 22.25 -6.875 C 23.425781 -10.570312 24.503906 -14.019531 25.484375 -17.21875 C 26.460938 -20.414062 27.40625 -23.503906 28.3125 -26.484375 C 29.21875 -29.460938 30.113281 -32.457031 31 -35.46875 C 31.894531 -38.488281 32.832031 -41.632812 33.8125 -44.90625 C 34.789062 -48.175781 35.851562 -51.695312 37 -55.46875 L 45.484375 -55.46875 C 44.335938 -51.695312 43.273438 -48.175781 42.296875 -44.90625 C 41.316406 -41.632812 40.363281 -38.5 39.4375 -35.5 C 38.507812 -32.5 37.59375 -29.5 36.6875 -26.5 C 35.78125 -23.507812 34.835938 -20.414062 33.859375 -17.21875 C 32.878906 -14.019531 31.835938 -10.570312 30.734375 -6.875 C 30.359375 -5.625 29.847656 -4.421875 29.203125 -3.265625 C 28.554688 -2.117188 27.75 -1.191406 26.78125 -0.484375 C 25.820312 0.210938 24.660156 0.5625 23.296875 0.5625 C 21.960938 0.5625 20.804688 0.210938 19.828125 -0.484375 C 18.847656 -1.191406 18.039062 -2.117188 17.40625 -3.265625 C 16.78125 -4.421875 16.265625 -5.625 15.859375 -6.875 C 14.710938 -10.570312 13.660156 -14.019531 12.703125 -17.21875 C 11.742188 -20.414062 10.8125 -23.507812 9.90625 -26.5 C 9 -29.5 8.09375 -32.5 7.1875 -35.5 C 6.28125 -38.5 5.328125 -41.632812 4.328125 -44.90625 C 3.328125 -48.175781 2.253906 -51.695312 1.109375 -55.46875 Z M 1.109375 -55.46875 "/></g></g></g><g fill="#f9faf9" fill-opacity="1"><g transform="translate(99.396923, 176.249988)"><g><path d="M 2.21875 -18.640625 C 2.21875 -21.003906 2.804688 -22.960938 3.984375 -24.515625 C 5.171875 -26.066406 6.769531 -27.226562 8.78125 -28 C 10.800781 -28.78125 13.070312 -29.171875 15.59375 -29.171875 C 17.4375 -29.171875 19.109375 -28.976562 20.609375 -28.59375 C 22.109375 -28.207031 23.503906 -27.753906 24.796875 -27.234375 C 26.085938 -26.710938 27.34375 -26.257812 28.5625 -25.875 C 29.78125 -25.488281 31.039062 -25.296875 32.34375 -25.296875 C 32.96875 -25.296875 33.53125 -25.429688 34.03125 -25.703125 C 34.53125 -25.984375 34.78125 -26.4375 34.78125 -27.0625 C 34.78125 -27.882812 34.257812 -28.617188 33.21875 -29.265625 C 32.1875 -29.910156 30.875 -30.484375 29.28125 -30.984375 C 27.695312 -31.484375 26.015625 -31.9375 24.234375 -32.34375 C 22.460938 -32.75 20.835938 -33.132812 19.359375 -33.5 C 17.398438 -33.976562 15.484375 -34.46875 13.609375 -34.96875 C 11.742188 -35.46875 10.050781 -36.113281 8.53125 -36.90625 C 7.019531 -37.707031 5.8125 -38.765625 4.90625 -40.078125 C 4 -41.390625 3.546875 -43.0625 3.546875 -45.09375 C 3.546875 -45.757812 3.703125 -46.5625 4.015625 -47.5 C 4.335938 -48.445312 4.894531 -49.410156 5.6875 -50.390625 C 6.476562 -51.367188 7.585938 -52.285156 9.015625 -53.140625 C 10.441406 -53.992188 12.269531 -54.6875 14.5 -55.21875 C 16.738281 -55.757812 19.445312 -56.03125 22.625 -56.03125 C 24.070312 -56.03125 25.679688 -55.960938 27.453125 -55.828125 C 29.234375 -55.703125 31.03125 -55.488281 32.84375 -55.1875 C 34.65625 -54.894531 36.304688 -54.515625 37.796875 -54.046875 C 39.296875 -53.585938 40.472656 -53.007812 41.328125 -52.3125 L 39.046875 -43.984375 C 37.972656 -44.765625 36.503906 -45.46875 34.640625 -46.09375 C 32.773438 -46.71875 30.6875 -47.222656 28.375 -47.609375 C 26.0625 -48.003906 23.722656 -48.203125 21.359375 -48.203125 C 17.328125 -48.203125 14.394531 -47.71875 12.5625 -46.75 C 10.726562 -45.789062 9.8125 -44.332031 9.8125 -42.375 C 9.8125 -40.863281 10.335938 -39.617188 11.390625 -38.640625 C 12.453125 -37.660156 13.84375 -36.835938 15.5625 -36.171875 C 17.28125 -35.503906 19.171875 -34.921875 21.234375 -34.421875 C 23.304688 -33.921875 25.367188 -33.421875 27.421875 -32.921875 C 29.484375 -32.421875 31.375 -31.828125 33.09375 -31.140625 C 34.8125 -30.460938 36.195312 -29.601562 37.25 -28.5625 C 38.300781 -27.53125 38.828125 -26.21875 38.828125 -24.625 C 38.828125 -23.257812 38.484375 -22.066406 37.796875 -21.046875 C 37.117188 -20.035156 36.210938 -19.242188 35.078125 -18.671875 C 33.953125 -18.097656 32.742188 -17.789062 31.453125 -17.75 C 29.421875 -17.675781 27.503906 -17.890625 25.703125 -18.390625 C 23.910156 -18.890625 22.191406 -19.476562 20.546875 -20.15625 C 18.898438 -20.84375 17.242188 -21.453125 15.578125 -21.984375 C 13.921875 -22.523438 12.1875 -22.796875 10.375 -22.796875 C 7.894531 -22.796875 6.082031 -22.390625 4.9375 -21.578125 C 3.789062 -20.765625 3.21875 -19.632812 3.21875 -18.1875 C 3.21875 -16.15625 3.898438 -14.445312 5.265625 -13.0625 C 6.640625 -11.675781 8.476562 -10.578125 10.78125 -9.765625 C 13.09375 -8.953125 15.707031 -8.367188 18.625 -8.015625 C 21.550781 -7.660156 24.566406 -7.484375 27.671875 -7.484375 C 30.003906 -7.484375 32.296875 -7.675781 34.546875 -8.0625 C 36.804688 -8.457031 38.878906 -9.445312 40.765625 -11.03125 L 37.4375 -1.390625 C 35.957031 -0.679688 34.46875 -0.179688 32.96875 0.109375 C 31.476562 0.410156 29.789062 0.5625 27.90625 0.5625 C 24.570312 0.5625 21.359375 0.21875 18.265625 -0.46875 C 15.179688 -1.15625 12.4375 -2.242188 10.03125 -3.734375 C 7.632812 -5.234375 5.734375 -7.203125 4.328125 -9.640625 C 2.921875 -12.085938 2.21875 -15.085938 2.21875 -18.640625 Z M 2.21875 -18.640625 "/></g></g></g><g fill="#f9faf9" fill-opacity="1"><g transform="translate(141.929414, 176.249988)"><g><path d="M 11.921875 0 L 3.890625 0 L 3.890625 -55.46875 L 32 -55.46875 C 34.039062 -55.46875 35.71875 -54.984375 37.03125 -54.015625 C 38.34375 -53.054688 39.328125 -51.847656 39.984375 -50.390625 C 40.648438 -48.929688 40.984375 -47.441406 40.984375 -45.921875 C 40.984375 -43.703125 40.539062 -41.804688 39.65625 -40.234375 C 38.769531 -38.671875 37.632812 -37.34375 36.25 -36.25 C 34.863281 -35.15625 33.382812 -34.25 31.8125 -33.53125 C 30.238281 -32.8125 28.757812 -32.179688 27.375 -31.640625 C 25.988281 -31.109375 24.847656 -30.609375 23.953125 -30.140625 C 23.066406 -29.679688 22.625 -29.175781 22.625 -28.625 C 22.625 -28.070312 22.929688 -27.15625 23.546875 -25.875 C 24.160156 -24.601562 24.992188 -23.097656 26.046875 -21.359375 C 27.097656 -19.617188 28.269531 -17.796875 29.5625 -15.890625 C 30.851562 -13.984375 32.191406 -12.101562 33.578125 -10.25 C 34.972656 -8.40625 36.304688 -6.734375 37.578125 -5.234375 C 38.859375 -3.742188 40.015625 -2.550781 41.046875 -1.65625 C 42.078125 -0.769531 42.875 -0.328125 43.4375 -0.328125 L 43.4375 0 L 34.28125 0 C 33.207031 0 32.382812 -0.09375 31.8125 -0.28125 C 31.238281 -0.46875 30.691406 -0.851562 30.171875 -1.4375 C 29.660156 -2.03125 28.921875 -2.957031 27.953125 -4.21875 C 27.023438 -5.4375 26.023438 -6.8125 24.953125 -8.34375 C 23.890625 -9.882812 22.835938 -11.46875 21.796875 -13.09375 C 20.765625 -14.71875 19.820312 -16.285156 18.96875 -17.796875 C 18.113281 -19.316406 17.4375 -20.695312 16.9375 -21.9375 C 16.445312 -23.175781 16.203125 -24.144531 16.203125 -24.84375 C 16.203125 -25.738281 16.609375 -26.535156 17.421875 -27.234375 C 18.234375 -27.941406 19.265625 -28.644531 20.515625 -29.34375 C 21.773438 -30.039062 23.125 -30.820312 24.5625 -31.6875 C 26.007812 -32.5625 27.363281 -33.597656 28.625 -34.796875 C 29.882812 -36.003906 30.921875 -37.476562 31.734375 -39.21875 C 32.546875 -40.957031 32.953125 -43.023438 32.953125 -45.421875 C 32.953125 -47.160156 32.644531 -48.722656 32.03125 -50.109375 C 31.425781 -51.503906 30.445312 -52.609375 29.09375 -53.421875 C 27.738281 -54.234375 25.972656 -54.640625 23.796875 -54.640625 L 11.921875 -54.640625 Z M 11.921875 0 "/></g></g></g><g fill="#f9faf9" fill-opacity="1"><g transform="translate(185.349153, 176.249988)"><g><path d="M 1.109375 -55.46875 L 13.203125 -55.46875 C 13.015625 -54.65625 12.863281 -53.320312 12.75 -51.46875 C 12.644531 -49.625 12.582031 -47.414062 12.5625 -44.84375 C 12.539062 -42.269531 12.578125 -39.523438 12.671875 -36.609375 C 12.765625 -33.691406 12.929688 -30.734375 13.171875 -27.734375 C 13.410156 -24.734375 13.710938 -21.863281 14.078125 -19.125 C 14.453125 -16.394531 14.90625 -13.957031 15.4375 -11.8125 C 15.976562 -9.664062 16.609375 -7.960938 17.328125 -6.703125 C 18.054688 -5.453125 18.878906 -4.828125 19.796875 -4.828125 C 20.429688 -4.828125 20.929688 -4.972656 21.296875 -5.265625 C 21.671875 -5.566406 21.988281 -6.101562 22.25 -6.875 C 23.425781 -10.570312 24.503906 -14.019531 25.484375 -17.21875 C 26.460938 -20.414062 27.40625 -23.503906 28.3125 -26.484375 C 29.21875 -29.460938 30.113281 -32.457031 31 -35.46875 C 31.894531 -38.488281 32.832031 -41.632812 33.8125 -44.90625 C 34.789062 -48.175781 35.851562 -51.695312 37 -55.46875 L 45.484375 -55.46875 C 44.554688 -52.4375 43.6875 -49.578125 42.875 -46.890625 C 42.0625 -44.210938 41.285156 -41.617188 40.546875 -39.109375 C 40.617188 -36.109375 40.765625 -33.019531 40.984375 -29.84375 C 41.210938 -26.664062 41.507812 -23.585938 41.875 -20.609375 C 42.25 -17.628906 42.710938 -14.957031 43.265625 -12.59375 C 43.816406 -10.226562 44.460938 -8.34375 45.203125 -6.9375 C 45.941406 -5.53125 46.796875 -4.828125 47.765625 -4.828125 C 48.390625 -4.828125 48.882812 -4.972656 49.25 -5.265625 C 49.625 -5.566406 49.941406 -6.101562 50.203125 -6.875 C 51.378906 -10.570312 52.457031 -14.019531 53.4375 -17.21875 C 54.425781 -20.414062 55.367188 -23.503906 56.265625 -26.484375 C 57.171875 -29.460938 58.066406 -32.457031 58.953125 -35.46875 C 59.847656 -38.488281 60.785156 -41.632812 61.765625 -44.90625 C 62.742188 -48.175781 63.804688 -51.695312 64.953125 -55.46875 L 73.4375 -55.46875 C 72.289062 -51.695312 71.226562 -48.175781 70.25 -44.90625 C 69.269531 -41.632812 68.316406 -38.5 67.390625 -35.5 C 66.472656 -32.5 65.5625 -29.5 64.65625 -26.5 C 63.75 -23.507812 62.800781 -20.414062 61.8125 -17.21875 C 60.832031 -14.019531 59.789062 -10.570312 58.6875 -6.875 C 58.3125 -5.625 57.800781 -4.421875 57.15625 -3.265625 C 56.507812 -2.117188 55.707031 -1.191406 54.75 -0.484375 C 53.789062 0.210938 52.625 0.5625 51.25 0.5625 C 49.914062 0.5625 48.757812 0.210938 47.78125 -0.484375 C 46.800781 -1.191406 46 -2.117188 45.375 -3.265625 C 44.75 -4.421875 44.234375 -5.625 43.828125 -6.875 C 42.566406 -10.945312 41.414062 -14.71875 40.375 -18.1875 C 39.34375 -21.664062 38.3125 -25.050781 37.28125 -28.34375 C 36.28125 -25.050781 35.25 -21.664062 34.1875 -18.1875 C 33.132812 -14.71875 31.984375 -10.945312 30.734375 -6.875 C 30.359375 -5.625 29.847656 -4.421875 29.203125 -3.265625 C 28.554688 -2.117188 27.75 -1.191406 26.78125 -0.484375 C 25.820312 0.210938 24.660156 0.5625 23.296875 0.5625 C 21.960938 0.5625 20.804688 0.210938 19.828125 -0.484375 C 18.847656 -1.191406 18.039062 -2.117188 17.40625 -3.265625 C 16.78125 -4.421875 16.265625 -5.625 15.859375 -6.875 C 14.710938 -10.570312 13.660156 -14.019531 12.703125 -17.21875 C 11.742188 -20.414062 10.8125 -23.507812 9.90625 -26.5 C 9 -29.5 8.09375 -32.5 7.1875 -35.5 C 6.28125 -38.5 5.328125 -41.632812 4.328125 -44.90625 C 3.328125 -48.175781 2.253906 -51.695312 1.109375 -55.46875 Z M 1.109375 -55.46875 "/></g></g></g><g fill="#f9faf9" fill-opacity="1"><g transform="translate(259.878064, 176.249988)"><g><path d="M 3.890625 0 L 3.890625 -55.46875 L 11.921875 -55.46875 L 11.921875 0 Z M 3.890625 0 "/></g></g></g><g fill="#f9faf9" fill-opacity="1"><g transform="translate(275.682171, 176.249988)"><g><path d="M 25.578125 0.5625 C 21.722656 0.5625 18.332031 -0.222656 15.40625 -1.796875 C 12.488281 -3.367188 10.050781 -5.515625 8.09375 -8.234375 C 6.132812 -10.953125 4.664062 -14.050781 3.6875 -17.53125 C 2.707031 -21.007812 2.21875 -24.648438 2.21875 -28.453125 C 2.21875 -32.410156 2.789062 -36.0625 3.9375 -39.40625 C 5.082031 -42.757812 6.753906 -45.679688 8.953125 -48.171875 C 11.160156 -50.671875 13.828125 -52.601562 16.953125 -53.96875 C 20.078125 -55.34375 23.597656 -56.03125 27.515625 -56.03125 C 29.429688 -56.03125 31.285156 -55.75 33.078125 -55.1875 C 34.878906 -54.632812 36.484375 -53.914062 37.890625 -53.03125 C 39.296875 -52.144531 40.328125 -51.179688 40.984375 -50.140625 L 35.5625 -43.65625 C 33.375 -46.238281 30.78125 -48.316406 27.78125 -49.890625 C 24.789062 -51.460938 21.722656 -52.25 18.578125 -52.25 C 16.066406 -52.25 13.914062 -51.472656 12.125 -49.921875 C 10.332031 -48.367188 8.960938 -46.234375 8.015625 -43.515625 C 7.066406 -40.796875 6.59375 -37.660156 6.59375 -34.109375 C 6.59375 -30.597656 7.007812 -27.25 7.84375 -24.0625 C 8.675781 -20.882812 9.925781 -18.066406 11.59375 -15.609375 C 13.257812 -13.148438 15.300781 -11.207031 17.71875 -9.78125 C 20.144531 -8.363281 22.929688 -7.65625 26.078125 -7.65625 C 28.398438 -7.65625 30.347656 -7.941406 31.921875 -8.515625 C 33.492188 -9.085938 34.734375 -9.734375 35.640625 -10.453125 C 36.546875 -11.171875 37.191406 -11.816406 37.578125 -12.390625 C 37.960938 -12.960938 38.15625 -13.25 38.15625 -13.25 L 42.59375 -6.15625 C 42.59375 -6.15625 42.25 -5.8125 41.5625 -5.125 C 40.882812 -4.445312 39.84375 -3.671875 38.4375 -2.796875 C 37.03125 -1.929688 35.253906 -1.15625 33.109375 -0.46875 C 30.960938 0.21875 28.453125 0.5625 25.578125 0.5625 Z M 25.578125 0.5625 "/></g></g></g><g fill="#f9faf9" fill-opacity="1"><g transform="translate(319.101921, 176.249988)"><g><path d="M 3.890625 -55.46875 L 11.921875 -55.46875 L 11.921875 -28.78125 C 13.441406 -30.1875 14.8125 -31.460938 16.03125 -32.609375 C 17.25 -33.753906 18.707031 -35.109375 20.40625 -36.671875 C 22.476562 -38.585938 24.390625 -40.546875 26.140625 -42.546875 C 27.898438 -44.546875 29.304688 -46.429688 30.359375 -48.203125 C 31.421875 -49.972656 31.953125 -51.488281 31.953125 -52.75 C 31.953125 -53.75 31.703125 -54.394531 31.203125 -54.6875 C 30.703125 -54.988281 30.191406 -55.15625 29.671875 -55.1875 L 29.671875 -55.46875 L 43.4375 -55.46875 L 17.6875 -33 C 18.101562 -33.144531 18.515625 -33.242188 18.921875 -33.296875 C 19.328125 -33.359375 19.710938 -33.390625 20.078125 -33.390625 C 21.078125 -33.390625 21.910156 -33.175781 22.578125 -32.75 C 23.242188 -32.320312 23.910156 -31.65625 24.578125 -30.75 C 25.242188 -29.851562 26.035156 -28.679688 26.953125 -27.234375 C 28.691406 -24.609375 30.273438 -22.203125 31.703125 -20.015625 C 33.128906 -17.835938 34.5 -15.722656 35.8125 -13.671875 C 37.125 -11.617188 38.476562 -9.492188 39.875 -7.296875 C 41.28125 -5.097656 42.816406 -2.664062 44.484375 0 L 34.953125 0 C 33.285156 -2.664062 31.757812 -5.097656 30.375 -7.296875 C 28.988281 -9.492188 27.632812 -11.628906 26.3125 -13.703125 C 25 -15.773438 23.628906 -17.898438 22.203125 -20.078125 C 20.785156 -22.265625 19.191406 -24.648438 17.421875 -27.234375 C 17.015625 -27.859375 16.644531 -28.351562 16.3125 -28.71875 C 15.976562 -29.09375 15.457031 -29.28125 14.75 -29.28125 C 14.238281 -29.28125 13.757812 -29.160156 13.3125 -28.921875 C 12.863281 -28.679688 12.398438 -28.359375 11.921875 -27.953125 L 11.921875 0 L 3.890625 0 Z M 3.890625 -55.46875 "/></g></g></g><g fill="#f9faf9" fill-opacity="1"><g transform="translate(65.209636, 253.499983)"><g><path d="M 2.78125 -55.46875 L 31.5625 -55.46875 C 32.96875 -55.46875 34.304688 -55.269531 35.578125 -54.875 C 36.859375 -54.488281 37.894531 -53.851562 38.6875 -52.96875 C 39.476562 -52.082031 39.875 -50.882812 39.875 -49.375 C 39.875 -47.519531 39.394531 -45.960938 38.4375 -44.703125 C 37.476562 -43.453125 36.25 -42.398438 34.75 -41.546875 C 33.25 -40.691406 31.648438 -39.988281 29.953125 -39.4375 C 28.253906 -38.882812 26.65625 -38.394531 25.15625 -37.96875 C 23.65625 -37.539062 22.425781 -37.113281 21.46875 -36.6875 C 20.507812 -36.269531 20.03125 -35.78125 20.03125 -35.21875 C 20.03125 -34.332031 20.441406 -33.59375 21.265625 -33 C 22.097656 -32.40625 23.207031 -31.867188 24.59375 -31.390625 C 25.988281 -30.910156 27.507812 -30.398438 29.15625 -29.859375 C 30.800781 -29.328125 32.441406 -28.664062 34.078125 -27.875 C 35.722656 -27.082031 37.238281 -26.082031 38.625 -24.875 C 40.019531 -23.675781 41.128906 -22.171875 41.953125 -20.359375 C 42.785156 -18.546875 43.203125 -16.34375 43.203125 -13.75 C 43.203125 -11.757812 42.785156 -9.921875 41.953125 -8.234375 C 41.128906 -6.554688 40.003906 -5.101562 38.578125 -3.875 C 37.148438 -2.65625 35.519531 -1.703125 33.6875 -1.015625 C 31.863281 -0.335938 29.953125 0 27.953125 0 L 2.78125 0 Z M 10.8125 -7.765625 L 31.125 -7.765625 C 33.257812 -7.765625 35.175781 -7.96875 36.875 -8.375 C 38.582031 -8.78125 39.925781 -9.460938 40.90625 -10.421875 C 41.882812 -11.390625 42.375 -12.664062 42.375 -14.25 C 42.375 -15.800781 41.863281 -17.054688 40.84375 -18.015625 C 39.832031 -18.984375 38.492188 -19.742188 36.828125 -20.296875 C 35.160156 -20.859375 33.328125 -21.332031 31.328125 -21.71875 C 29.335938 -22.101562 27.332031 -22.507812 25.3125 -22.9375 C 23.300781 -23.363281 21.460938 -23.890625 19.796875 -24.515625 C 18.140625 -25.140625 16.800781 -25.96875 15.78125 -27 C 14.757812 -28.039062 14.25 -29.414062 14.25 -31.125 C 14.25 -32.300781 14.664062 -33.285156 15.5 -34.078125 C 16.332031 -34.878906 17.414062 -35.582031 18.75 -36.1875 C 20.082031 -36.800781 21.476562 -37.421875 22.9375 -38.046875 C 24.394531 -38.679688 25.789062 -39.421875 27.125 -40.265625 C 28.457031 -41.117188 29.539062 -42.191406 30.375 -43.484375 C 31.207031 -44.773438 31.625 -46.382812 31.625 -48.3125 C 31.625 -50.050781 31.128906 -51.375 30.140625 -52.28125 C 29.160156 -53.1875 27.828125 -53.804688 26.140625 -54.140625 C 24.460938 -54.472656 22.59375 -54.640625 20.53125 -54.640625 L 10.8125 -54.640625 Z M 10.8125 -7.765625 "/></g></g></g><g fill="#f9faf9" fill-opacity="1"><g transform="translate(109.516624, 253.499983)"><g><path d="M 24.125 0.5625 C 19.726562 0.5625 15.882812 -0.617188 12.59375 -2.984375 C 9.300781 -5.359375 6.75 -8.660156 4.9375 -12.890625 C 3.125 -17.128906 2.21875 -22.078125 2.21875 -27.734375 C 2.21875 -33.390625 3.125 -38.332031 4.9375 -42.5625 C 6.75 -46.800781 9.300781 -50.101562 12.59375 -52.46875 C 15.882812 -54.84375 19.726562 -56.03125 24.125 -56.03125 C 27.414062 -56.03125 30.398438 -55.351562 33.078125 -54 C 35.765625 -52.644531 38.078125 -50.71875 40.015625 -48.21875 C 41.960938 -45.726562 43.453125 -42.753906 44.484375 -39.296875 C 45.523438 -35.835938 46.046875 -31.984375 46.046875 -27.734375 C 46.046875 -23.484375 45.523438 -19.628906 44.484375 -16.171875 C 43.453125 -12.710938 41.960938 -9.734375 40.015625 -7.234375 C 38.078125 -4.742188 35.765625 -2.820312 33.078125 -1.46875 C 30.398438 -0.113281 27.414062 0.5625 24.125 0.5625 Z M 10.875 -27.796875 C 10.875 -22.285156 11.414062 -17.46875 12.5 -13.34375 C 13.59375 -9.21875 15.140625 -6.007812 17.140625 -3.71875 C 19.140625 -1.425781 21.453125 -0.28125 24.078125 -0.28125 C 26.734375 -0.28125 29.0625 -1.425781 31.0625 -3.71875 C 33.0625 -6.007812 34.613281 -9.21875 35.71875 -13.34375 C 36.832031 -17.46875 37.390625 -22.285156 37.390625 -27.796875 C 37.390625 -33.304688 36.832031 -38.113281 35.71875 -42.21875 C 34.613281 -46.320312 33.0625 -49.519531 31.0625 -51.8125 C 29.0625 -54.101562 26.734375 -55.25 24.078125 -55.25 C 21.453125 -55.25 19.140625 -54.101562 17.140625 -51.8125 C 15.140625 -49.519531 13.59375 -46.320312 12.5 -42.21875 C 11.414062 -38.113281 10.875 -33.304688 10.875 -27.796875 Z M 10.875 -27.796875 "/></g></g></g><g fill="#f9faf9" fill-opacity="1"><g transform="translate(157.760781, 253.499983)"><g><path d="M 24.125 0.5625 C 19.726562 0.5625 15.882812 -0.617188 12.59375 -2.984375 C 9.300781 -5.359375 6.75 -8.660156 4.9375 -12.890625 C 3.125 -17.128906 2.21875 -22.078125 2.21875 -27.734375 C 2.21875 -33.390625 3.125 -38.332031 4.9375 -42.5625 C 6.75 -46.800781 9.300781 -50.101562 12.59375 -52.46875 C 15.882812 -54.84375 19.726562 -56.03125 24.125 -56.03125 C 27.414062 -56.03125 30.398438 -55.351562 33.078125 -54 C 35.765625 -52.644531 38.078125 -50.71875 40.015625 -48.21875 C 41.960938 -45.726562 43.453125 -42.753906 44.484375 -39.296875 C 45.523438 -35.835938 46.046875 -31.984375 46.046875 -27.734375 C 46.046875 -23.484375 45.523438 -19.628906 44.484375 -16.171875 C 43.453125 -12.710938 41.960938 -9.734375 40.015625 -7.234375 C 38.078125 -4.742188 35.765625 -2.820312 33.078125 -1.46875 C 30.398438 -0.113281 27.414062 0.5625 24.125 0.5625 Z M 10.875 -27.796875 C 10.875 -22.285156 11.414062 -17.46875 12.5 -13.34375 C 13.59375 -9.21875 15.140625 -6.007812 17.140625 -3.71875 C 19.140625 -1.425781 21.453125 -0.28125 24.078125 -0.28125 C 26.734375 -0.28125 29.0625 -1.425781 31.0625 -3.71875 C 33.0625 -6.007812 34.613281 -9.21875 35.71875 -13.34375 C 36.832031 -17.46875 37.390625 -22.285156 37.390625 -27.796875 C 37.390625 -33.304688 36.832031 -38.113281 35.71875 -42.21875 C 34.613281 -46.320312 33.0625 -49.519531 31.0625 -51.8125 C 29.0625 -54.101562 26.734375 -55.25 24.078125 -55.25 C 21.453125 -55.25 19.140625 -54.101562 17.140625 -51.8125 C 15.140625 -49.519531 13.59375 -46.320312 12.5 -42.21875 C 11.414062 -38.113281 10.875 -33.304688 10.875 -27.796875 Z M 10.875 -27.796875 "/></g></g></g><g fill="#f9faf9" fill-opacity="1"><g transform="translate(206.004937, 253.499983)"><g><path d="M 25.953125 0.5625 C 22.003906 0.5625 18.539062 -0.222656 15.5625 -1.796875 C 12.582031 -3.367188 10.101562 -5.523438 8.125 -8.265625 C 6.144531 -11.003906 4.664062 -14.117188 3.6875 -17.609375 C 2.707031 -21.109375 2.21875 -24.78125 2.21875 -28.625 C 2.21875 -32.613281 2.78125 -36.269531 3.90625 -39.59375 C 5.039062 -42.925781 6.6875 -45.820312 8.84375 -48.28125 C 11.007812 -50.738281 13.644531 -52.644531 16.75 -54 C 19.851562 -55.351562 23.367188 -56.03125 27.296875 -56.03125 C 29.210938 -56.03125 31.085938 -55.78125 32.921875 -55.28125 C 34.753906 -54.78125 36.390625 -54.113281 37.828125 -53.28125 C 39.273438 -52.445312 40.328125 -51.492188 40.984375 -50.421875 L 35.5625 -43.9375 C 33.375 -46.519531 30.78125 -48.601562 27.78125 -50.1875 C 24.789062 -51.78125 21.722656 -52.578125 18.578125 -52.578125 C 16.066406 -52.578125 14.097656 -51.894531 12.671875 -50.53125 C 11.253906 -49.164062 10.253906 -47.207031 9.671875 -44.65625 C 9.097656 -42.101562 8.8125 -39.050781 8.8125 -35.5 C 8.8125 -32.28125 9.238281 -29.015625 10.09375 -25.703125 C 10.945312 -22.398438 12.09375 -19.238281 13.53125 -16.21875 C 14.976562 -13.207031 16.613281 -10.519531 18.4375 -8.15625 C 20.269531 -5.789062 22.164062 -3.921875 24.125 -2.546875 C 26.082031 -1.179688 28.003906 -0.5 29.890625 -0.5 C 30.597656 -0.5 31.359375 -0.644531 32.171875 -0.9375 C 32.984375 -1.238281 33.390625 -1.664062 33.390625 -2.21875 L 33.390625 -29.78125 L 41.546875 -29.78125 L 41.546875 -4.15625 C 40.398438 -3.125 39.175781 -2.253906 37.875 -1.546875 C 36.582031 -0.847656 35.003906 -0.320312 33.140625 0.03125 C 31.273438 0.382812 28.878906 0.5625 25.953125 0.5625 Z M 25.953125 0.5625 "/></g></g></g><g fill="#f9faf9" fill-opacity="1"><g transform="translate(251.420996, 253.499983)"><g><path d="M 3.890625 0 L 3.890625 -55.46875 L 11.921875 -55.46875 L 11.921875 0 Z M 3.890625 0 "/></g></g></g><g fill="#f9faf9" fill-opacity="1"><g transform="translate(267.225125, 253.499983)"><g><path d="M 2.21875 -18.640625 C 2.21875 -21.003906 2.804688 -22.960938 3.984375 -24.515625 C 5.171875 -26.066406 6.769531 -27.226562 8.78125 -28 C 10.800781 -28.78125 13.070312 -29.171875 15.59375 -29.171875 C 17.4375 -29.171875 19.109375 -28.976562 20.609375 -28.59375 C 22.109375 -28.207031 23.503906 -27.753906 24.796875 -27.234375 C 26.085938 -26.710938 27.34375 -26.257812 28.5625 -25.875 C 29.78125 -25.488281 31.039062 -25.296875 32.34375 -25.296875 C 32.96875 -25.296875 33.53125 -25.429688 34.03125 -25.703125 C 34.53125 -25.984375 34.78125 -26.4375 34.78125 -27.0625 C 34.78125 -27.882812 34.257812 -28.617188 33.21875 -29.265625 C 32.1875 -29.910156 30.875 -30.484375 29.28125 -30.984375 C 27.695312 -31.484375 26.015625 -31.9375 24.234375 -32.34375 C 22.460938 -32.75 20.835938 -33.132812 19.359375 -33.5 C 17.398438 -33.976562 15.484375 -34.46875 13.609375 -34.96875 C 11.742188 -35.46875 10.050781 -36.113281 8.53125 -36.90625 C 7.019531 -37.707031 5.8125 -38.765625 4.90625 -40.078125 C 4 -41.390625 3.546875 -43.0625 3.546875 -45.09375 C 3.546875 -45.757812 3.703125 -46.5625 4.015625 -47.5 C 4.335938 -48.445312 4.894531 -49.410156 5.6875 -50.390625 C 6.476562 -51.367188 7.585938 -52.285156 9.015625 -53.140625 C 10.441406 -53.992188 12.269531 -54.6875 14.5 -55.21875 C 16.738281 -55.757812 19.445312 -56.03125 22.625 -56.03125 C 24.070312 -56.03125 25.679688 -55.960938 27.453125 -55.828125 C 29.234375 -55.703125 31.03125 -55.488281 32.84375 -55.1875 C 34.65625 -54.894531 36.304688 -54.515625 37.796875 -54.046875 C 39.296875 -53.585938 40.472656 -53.007812 41.328125 -52.3125 L 39.046875 -43.984375 C 37.972656 -44.765625 36.503906 -45.46875 34.640625 -46.09375 C 32.773438 -46.71875 30.6875 -47.222656 28.375 -47.609375 C 26.0625 -48.003906 23.722656 -48.203125 21.359375 -48.203125 C 17.328125 -48.203125 14.394531 -47.71875 12.5625 -46.75 C 10.726562 -45.789062 9.8125 -44.332031 9.8125 -42.375 C 9.8125 -40.863281 10.335938 -39.617188 11.390625 -38.640625 C 12.453125 -37.660156 13.84375 -36.835938 15.5625 -36.171875 C 17.28125 -35.503906 19.171875 -34.921875 21.234375 -34.421875 C 23.304688 -33.921875 25.367188 -33.421875 27.421875 -32.921875 C 29.484375 -32.421875 31.375 -31.828125 33.09375 -31.140625 C 34.8125 -30.460938 36.195312 -29.601562 37.25 -28.5625 C 38.300781 -27.53125 38.828125 -26.21875 38.828125 -24.625 C 38.828125 -23.257812 38.484375 -22.066406 37.796875 -21.046875 C 37.117188 -20.035156 36.210938 -19.242188 35.078125 -18.671875 C 33.953125 -18.097656 32.742188 -17.789062 31.453125 -17.75 C 29.421875 -17.675781 27.503906 -17.890625 25.703125 -18.390625 C 23.910156 -18.890625 22.191406 -19.476562 20.546875 -20.15625 C 18.898438 -20.84375 17.242188 -21.453125 15.578125 -21.984375 C 13.921875 -22.523438 12.1875 -22.796875 10.375 -22.796875 C 7.894531 -22.796875 6.082031 -22.390625 4.9375 -21.578125 C 3.789062 -20.765625 3.21875 -19.632812 3.21875 -18.1875 C 3.21875 -16.15625 3.898438 -14.445312 5.265625 -13.0625 C 6.640625 -11.675781 8.476562 -10.578125 10.78125 -9.765625 C 13.09375 -8.953125 15.707031 -8.367188 18.625 -8.015625 C 21.550781 -7.660156 24.566406 -7.484375 27.671875 -7.484375 C 30.003906 -7.484375 32.296875 -7.675781 34.546875 -8.0625 C 36.804688 -8.457031 38.878906 -9.445312 40.765625 -11.03125 L 37.4375 -1.390625 C 35.957031 -0.679688 34.46875 -0.179688 32.96875 0.109375 C 31.476562 0.410156 29.789062 0.5625 27.90625 0.5625 C 24.570312 0.5625 21.359375 0.21875 18.265625 -0.46875 C 15.179688 -1.15625 12.4375 -2.242188 10.03125 -3.734375 C 7.632812 -5.234375 5.734375 -7.203125 4.328125 -9.640625 C 2.921875 -12.085938 2.21875 -15.085938 2.21875 -18.640625 Z M 2.21875 -18.640625 "/></g></g></g></svg>