<svg xmlns="http://www.w3.org/2000/svg" xmlns:xlink="http://www.w3.org/1999/xlink" width="500" zoomAndPan="magnify" viewBox="0 0 375 374.999991" height="500" preserveAspectRatio="xMidYMid meet" version="1.0"><defs><clipPath id="9adf916006"><path d="M 158 5.03125 L 208 5.03125 L 208 88 L 158 88 Z M 158 5.03125 " clip-rule="nonzero"/></clipPath><clipPath id="c73c725909"><path d="M 12 5.03125 L 366.597656 5.03125 L 366.597656 370 L 12 370 Z M 12 5.03125 " clip-rule="nonzero"/></clipPath></defs><rect x="-37.5" width="450" fill="#ffffff" y="-37.499999" height="449.999989" fill-opacity="1"/><rect x="-37.5" width="450" fill="#f9faf9" y="-37.499999" height="449.999989" fill-opacity="1"/><path fill="#ffffff" d="M 202.40625 69.421875 L 210.671875 70.25 L 223.238281 70.25 L 281.59375 74.636719 L 330.777344 83.410156 L 347.472656 88.625 L 357.308594 94.667969 L 363.921875 101.949219 L 363.507812 130.917969 L 362.847656 226.929688 L 362.847656 319.214844 L 362.105469 331.464844 L 352.597656 337.671875 L 342.183594 344.953125 L 315.320312 355.714844 L 268.863281 363.742188 L 216.953125 367.714844 L 173.722656 367.714844 L 120.492188 363.992188 L 67.671875 356.707031 L 40.3125 345.285156 L 22.703125 332.539062 L 16.089844 320.042969 L 16.089844 302.082031 L 14.109375 223.535156 L 14.851562 140.851562 L 14.109375 102.035156 L 17.578125 95.742188 L 46.097656 83.90625 L 90.484375 76.292969 L 118.671875 72.566406 L 153.886719 70.914062 L 161.984375 70.25 Z M 202.40625 69.421875 " fill-opacity="1" fill-rule="nonzero"/><g clip-path="url(#9adf916006)"><path fill="#f0db83" d="M 183.726562 5.363281 L 185.625 6.4375 L 187.113281 7.597656 L 191.246094 11.15625 L 195.710938 15.210938 L 202.902344 24.066406 L 206.457031 37.972656 L 207.367188 43.929688 L 207.695312 50.304688 L 204.226562 61.972656 L 202.242188 66.773438 L 199.183594 72.15625 L 194.636719 78.691406 L 189.015625 83.410156 L 182.566406 87.714844 L 176.617188 82.75 L 168.183594 74.140625 L 161.65625 63.710938 L 158.84375 48.566406 L 158.84375 37.226562 L 164.464844 22.660156 L 173.226562 11.402344 L 182.566406 5.195312 Z M 183.726562 5.363281 " fill-opacity="1" fill-rule="nonzero"/></g><path fill="#cfd9cc" d="M 115.367188 105.59375 L 159.257812 102.117188 L 216.210938 102.117188 L 259.605469 106.253906 L 280.105469 107.660156 L 313.5 119.414062 L 321.4375 123.46875 L 327.554688 135.386719 L 329.289062 157.902344 L 330.609375 285.277344 L 329.289062 316.980469 L 326.394531 323.515625 L 314.824219 330.46875 L 296.308594 335.933594 L 270.683594 343.546875 L 222.742188 347.683594 L 189.179688 350.167969 L 145.785156 347.683594 L 106.109375 342.71875 L 71.886719 334.773438 L 59.074219 331.296875 L 46.097656 317.804688 L 46.097656 222.625 L 47.171875 160.550781 L 48.164062 135.386719 L 52.792969 126.699219 L 60.3125 121.484375 L 82.21875 113.785156 L 99.660156 108.984375 Z M 115.367188 105.59375 " fill-opacity="1" fill-rule="nonzero"/><g clip-path="url(#c73c725909)"><path fill="#3e3238" d="M 366.320312 323.765625 L 366.320312 308.289062 C 366.15625 274.519531 365.90625 240.75 365.492188 206.980469 L 365.164062 181.65625 L 364.75 156.328125 L 364.335938 136.296875 L 364.996094 103.523438 C 364.996094 102.363281 364.75 101.289062 364.335938 100.210938 C 363.921875 99.21875 363.425781 98.308594 362.765625 97.480469 L 362.683594 97.398438 C 362.351562 96.984375 362.105469 96.570312 361.773438 96.238281 L 361.277344 95.660156 L 360.78125 95.164062 C 359.375 93.839844 357.804688 92.597656 356.234375 91.605469 C 354.664062 90.613281 353.011719 89.617188 351.359375 88.789062 C 348.050781 87.136719 344.582031 85.726562 341.027344 84.570312 C 337.554688 83.410156 334 82.417969 330.445312 81.589844 C 316.3125 78.195312 301.929688 75.714844 287.378906 74.140625 C 261.839844 71.328125 236.132812 69.917969 210.339844 70.085938 L 210.425781 70.085938 C 205.050781 69.421875 206.457031 63.382812 206.457031 63.382812 C 211.910156 49.558594 210.257812 33.917969 202.15625 21.417969 C 201.578125 20.507812 200.917969 19.679688 200.339844 18.769531 C 199.761719 17.859375 199.015625 17.113281 198.273438 16.285156 C 197.527344 15.460938 196.785156 14.714844 196.125 13.886719 C 195.460938 13.058594 194.554688 12.398438 193.726562 11.652344 C 192.898438 10.90625 192.074219 10.328125 191.246094 9.664062 C 190.421875 9.003906 189.511719 8.507812 188.683594 7.925781 L 188.601562 7.84375 C 187.691406 7.347656 186.785156 6.769531 185.957031 6.273438 C 185.214844 5.859375 184.386719 5.527344 183.640625 5.195312 C 183.230469 5.03125 182.734375 5.03125 182.320312 5.195312 C 181.574219 5.527344 180.832031 5.859375 180.003906 6.273438 L 179.921875 6.355469 C 179.011719 6.851562 178.1875 7.347656 177.277344 7.925781 L 177.195312 8.011719 C 176.367188 8.589844 175.460938 9.167969 174.632812 9.75 C 173.804688 10.328125 172.980469 11.074219 172.152344 11.734375 C 168.929688 14.546875 166.035156 17.859375 163.804688 21.5 C 161.488281 25.226562 159.671875 29.199219 158.515625 33.417969 C 157.273438 37.640625 156.777344 41.945312 156.859375 46.332031 C 156.945312 47.40625 157.027344 48.484375 157.109375 49.558594 L 157.109375 49.640625 C 157.191406 50.71875 157.355469 51.792969 157.523438 52.785156 C 157.6875 53.78125 158.019531 54.9375 158.183594 55.933594 C 158.347656 56.925781 158.761719 58 159.09375 59.078125 C 159.421875 60.070312 159.835938 61.0625 160.167969 62.140625 C 160.496094 63.214844 160.992188 64.125 161.488281 65.121094 C 161.488281 65.121094 163.308594 70.417969 157.355469 70.582031 L 157.523438 70.582031 C 131.320312 70.996094 105.117188 72.484375 79.078125 75.960938 C 71.886719 76.953125 64.695312 78.113281 57.503906 79.601562 C 50.3125 81.011719 43.203125 82.832031 36.175781 85.066406 C 34.441406 85.644531 32.625 86.226562 30.886719 86.886719 C 29.152344 87.550781 27.414062 88.292969 25.679688 89.121094 C 23.945312 89.949219 22.289062 90.859375 20.636719 91.9375 C 18.902344 93.011719 17.332031 94.253906 15.925781 95.742188 C 15.183594 96.570312 14.4375 97.398438 13.859375 98.308594 C 13.199219 99.300781 12.703125 100.460938 12.453125 101.621094 C 12.289062 102.363281 12.207031 103.191406 12.207031 103.9375 L 13.613281 136.628906 C 13.445312 143.332031 13.28125 150.039062 13.199219 156.824219 L 12.949219 169.488281 L 12.785156 182.152344 C 12.703125 190.59375 12.535156 199.035156 12.453125 207.476562 L 12.207031 232.804688 L 12.125 258.132812 C 12.042969 275.015625 12.042969 291.898438 12.207031 308.785156 C 12.207031 313.007812 12.289062 317.226562 12.371094 321.449219 L 12.371094 324.675781 C 12.453125 326 12.621094 327.242188 13.03125 328.484375 C 13.777344 330.800781 15.015625 332.953125 16.671875 334.773438 C 18.15625 336.511719 19.8125 338.085938 21.628906 339.410156 C 23.367188 340.734375 25.265625 341.972656 27.167969 343.050781 C 30.96875 345.203125 34.855469 347.023438 38.90625 348.59375 C 46.839844 351.65625 55.023438 354.140625 63.289062 356.128906 C 71.554688 358.195312 79.820312 359.769531 88.171875 361.257812 C 104.867188 364.074219 121.648438 366.058594 138.511719 367.464844 C 155.371094 368.875 172.234375 369.617188 189.179688 369.867188 C 222.988281 370.28125 256.960938 368.542969 290.4375 362.75 C 298.789062 361.257812 307.136719 359.605469 315.402344 357.535156 C 323.75 355.464844 331.933594 352.816406 339.871094 349.671875 C 343.917969 348.015625 347.804688 346.113281 351.605469 343.878906 C 353.507812 342.71875 355.410156 341.476562 357.144531 340.070312 C 358.964844 338.664062 360.699219 337.007812 362.1875 335.269531 C 363.839844 333.367188 365.082031 331.132812 365.824219 328.730469 C 366.238281 327.488281 366.402344 326.164062 366.402344 324.757812 L 366.402344 324.34375 Z M 222.160156 71.742188 C 229.351562 72.15625 236.628906 72.652344 243.820312 73.230469 C 247.457031 73.480469 251.011719 73.808594 254.648438 74.222656 C 258.285156 74.636719 261.839844 74.96875 265.394531 75.300781 C 272.585938 76.042969 279.691406 76.953125 286.882812 78.03125 C 294.074219 79.023438 301.183594 80.265625 308.210938 81.589844 C 315.238281 82.914062 322.261719 84.488281 329.207031 86.390625 C 332.675781 87.300781 336.066406 88.375 339.457031 89.453125 C 342.84375 90.613281 346.152344 91.769531 349.375 93.09375 C 352.597656 94.335938 355.574219 95.992188 358.300781 98.058594 L 358.796875 98.472656 L 359.210938 98.886719 C 359.542969 99.136719 359.707031 99.46875 360.039062 99.714844 C 360.535156 100.296875 360.949219 100.875 361.195312 101.535156 C 361.441406 102.117188 361.609375 102.777344 361.609375 103.523438 C 361.609375 104.183594 361.441406 104.847656 361.195312 105.507812 C 360.863281 106.171875 360.535156 106.832031 360.039062 107.414062 C 359.542969 108.074219 358.964844 108.65625 358.386719 109.152344 C 357.144531 110.308594 355.738281 111.304688 354.25 112.214844 C 352.765625 113.125 351.195312 113.953125 349.621094 114.695312 C 348.050781 115.441406 346.398438 116.1875 344.746094 116.847656 C 341.441406 118.171875 338.050781 119.332031 334.578125 120.324219 C 331.105469 121.316406 327.636719 122.3125 324.164062 123.140625 L 323.007812 123.386719 C 322.511719 123.46875 322.015625 123.386719 321.601562 123.054688 C 320.941406 122.558594 320.277344 122.144531 319.617188 121.730469 C 314.160156 118.253906 308.375 115.441406 302.175781 113.539062 C 290.023438 109.398438 277.542969 106.832031 264.980469 104.847656 C 252.414062 102.859375 239.769531 101.621094 227.039062 100.710938 C 214.308594 99.796875 201.664062 99.46875 188.933594 99.46875 L 185.542969 99.46875 C 184.632812 99.46875 183.890625 98.722656 183.890625 97.8125 C 183.890625 97.730469 183.890625 97.648438 183.890625 97.5625 C 183.972656 96.652344 184.136719 95.742188 184.386719 94.75 C 184.632812 93.34375 184.964844 92.019531 185.128906 90.613281 C 185.214844 89.867188 185.296875 89.121094 185.378906 88.375 C 185.378906 87.796875 185.707031 87.300781 186.203125 87.050781 C 189.097656 85.398438 191.824219 83.410156 194.222656 81.175781 C 197.445312 78.195312 200.175781 74.804688 202.40625 71.078125 L 202.652344 70.664062 L 211.25 71.078125 C 214.96875 71.242188 218.609375 71.492188 222.160156 71.742188 Z M 328.378906 311.765625 L 328.378906 314.332031 C 328.378906 314.992188 328.296875 315.570312 328.132812 316.234375 C 327.71875 317.558594 326.972656 318.800781 326.066406 319.875 C 324 322.277344 321.519531 324.261719 318.707031 325.835938 C 315.816406 327.574219 312.839844 329.0625 309.78125 330.304688 C 303.5 332.871094 297.132812 335.023438 290.605469 336.761719 C 284.074219 338.5 277.378906 339.90625 270.683594 341.148438 C 257.210938 343.546875 243.652344 345.203125 230.097656 346.195312 C 216.457031 347.1875 202.820312 347.683594 189.097656 347.683594 C 175.375 347.683594 161.738281 347.105469 148.179688 346.03125 C 134.542969 345.035156 120.988281 343.296875 107.59375 340.898438 C 100.898438 339.65625 94.203125 338.167969 87.675781 336.429688 C 81.144531 334.691406 74.78125 332.539062 68.496094 329.972656 C 65.4375 328.730469 62.546875 327.160156 59.652344 325.503906 C 56.925781 323.929688 54.527344 321.945312 52.460938 319.628906 C 51.636719 318.550781 50.972656 317.390625 50.558594 316.152344 C 50.394531 315.570312 50.3125 314.992188 50.3125 314.414062 L 50.3125 311.847656 L 50.394531 301.585938 C 50.394531 294.714844 50.476562 287.84375 50.394531 280.976562 C 50.3125 274.105469 50.394531 267.234375 50.3125 260.367188 L 50.148438 239.757812 L 49.898438 219.148438 C 49.816406 212.277344 49.652344 205.410156 49.570312 198.539062 L 49.402344 188.277344 L 49.238281 178.011719 C 49.074219 169.074219 48.742188 160.136719 48.492188 151.195312 C 57.917969 156.660156 68.496094 159.722656 79.324219 160.136719 L 79.242188 160.136719 C 81.308594 160.714844 83.457031 161.210938 85.527344 161.789062 C 88.582031 162.617188 91.726562 163.363281 94.785156 164.027344 C 97.839844 164.6875 100.984375 165.433594 104.125 166.011719 C 107.265625 166.589844 110.324219 167.171875 113.464844 167.75 C 138.511719 172.054688 163.886719 174.039062 189.261719 174.621094 C 201.992188 174.867188 214.722656 174.535156 227.371094 173.542969 C 238.03125 172.714844 248.695312 171.226562 259.277344 169.40625 C 264.070312 168.578125 268.945312 168.082031 273.824219 168 C 288.539062 167.667969 317.882812 168.328125 329.621094 177.929688 C 329.453125 184.800781 329.371094 191.667969 329.289062 198.539062 L 329.039062 219.148438 L 328.792969 239.757812 L 328.628906 260.367188 C 328.542969 274.105469 328.460938 287.84375 328.542969 301.585938 C 328.296875 304.894531 328.378906 308.371094 328.378906 311.765625 Z M 316.394531 151.113281 C 314.328125 152.023438 312.179688 152.851562 310.113281 153.679688 C 307.21875 154.753906 304.160156 155.667969 301.183594 156.578125 L 292.175781 159.226562 C 289.199219 160.136719 286.140625 160.964844 283.082031 161.707031 C 280.023438 162.453125 276.882812 162.949219 273.824219 163.527344 C 270.765625 164.109375 267.625 164.523438 264.484375 164.9375 C 252 166.507812 239.4375 167.335938 226.875 168.082031 C 214.308594 168.824219 201.746094 169.324219 189.097656 169.570312 C 176.449219 169.820312 163.886719 169.738281 151.324219 169.074219 C 138.757812 168.414062 126.195312 167.335938 113.628906 165.597656 C 107.429688 164.6875 101.148438 163.695312 95.03125 162.289062 C 88.914062 160.964844 82.796875 159.308594 76.847656 157.320312 C 73.871094 156.328125 70.894531 155.253906 68 154.011719 C 65.109375 152.769531 62.378906 151.445312 59.652344 149.871094 C 58.332031 149.128906 57.007812 148.21875 55.769531 147.308594 L 55.519531 147.058594 L 49.652344 140.273438 C 49.484375 140.105469 49.402344 139.941406 49.320312 139.773438 C 48.492188 137.539062 48.660156 135.058594 49.898438 133.070312 C 50.558594 131.828125 51.46875 130.671875 52.460938 129.59375 C 53.121094 129.015625 53.703125 128.4375 54.445312 127.855469 C 54.859375 127.527344 55.355469 127.441406 55.851562 127.527344 C 58.910156 128.1875 61.886719 128.765625 64.941406 129.347656 C 79.242188 131.996094 93.707031 133.734375 108.175781 135.140625 C 122.640625 136.546875 137.105469 137.292969 151.570312 137.789062 C 166.035156 138.285156 180.585938 138.449219 195.050781 138.203125 C 224.0625 137.871094 252.992188 136.132812 281.84375 132.90625 C 285.480469 132.492188 289.035156 131.996094 292.585938 131.5 C 296.140625 131 299.777344 130.503906 303.332031 129.925781 C 308.789062 129.097656 314.246094 128.105469 319.617188 126.945312 C 319.617188 126.78125 332.925781 137.042969 316.394531 151.113281 Z M 180.253906 115.359375 C 180.335938 116.683594 180.417969 118.089844 180.585938 119.496094 C 180.75 120.902344 180.996094 122.226562 181.328125 123.636719 C 181.660156 125.042969 182.070312 126.449219 182.566406 127.773438 L 183.144531 127.773438 C 183.640625 126.449219 184.136719 125.042969 184.386719 123.636719 C 184.71875 122.3125 184.882812 120.902344 185.046875 119.496094 C 185.214844 118.089844 185.296875 116.765625 185.378906 115.359375 C 185.460938 113.953125 185.378906 112.628906 185.214844 111.21875 C 184.964844 109.234375 184.386719 107.246094 184.054688 105.34375 C 183.890625 104.433594 184.46875 103.605469 185.378906 103.441406 C 185.460938 103.441406 185.625 103.441406 185.707031 103.441406 L 189.015625 103.441406 C 201.578125 103.441406 214.226562 103.855469 226.789062 104.765625 C 239.355469 105.675781 251.917969 107 264.316406 108.984375 C 270.519531 109.980469 276.71875 111.136719 282.917969 112.460938 C 285.976562 113.125 289.035156 113.867188 292.09375 114.613281 C 295.148438 115.359375 298.125 116.269531 301.101562 117.179688 C 304.078125 118.089844 307.054688 119.082031 309.945312 120.160156 C 311.433594 120.65625 312.839844 121.234375 314.328125 121.816406 C 315.816406 122.394531 317.21875 123.054688 318.542969 123.71875 L 319.617188 124.214844 C 314.078125 125.457031 308.542969 126.53125 302.921875 127.527344 C 299.367188 128.105469 295.8125 128.683594 292.257812 129.261719 C 288.703125 129.761719 285.066406 130.257812 281.511719 130.671875 C 267.128906 132.410156 252.746094 133.566406 238.363281 134.3125 C 234.726562 134.476562 231.171875 134.644531 227.535156 134.808594 C 223.898438 134.972656 220.34375 135.058594 216.707031 135.140625 C 209.515625 135.304688 202.242188 135.386719 195.050781 135.386719 C 180.582031 135.386719 166.117188 135.058594 151.734375 134.3125 C 137.269531 133.566406 122.886719 132.492188 108.585938 131 C 94.289062 129.511719 79.90625 127.441406 65.851562 124.628906 L 65.6875 124.546875 C 64.777344 124.378906 64.117188 123.550781 64.28125 122.640625 C 64.363281 122.0625 64.777344 121.566406 65.355469 121.316406 C 66.347656 120.902344 67.339844 120.492188 68.332031 120.078125 C 71.226562 118.917969 74.199219 117.925781 77.175781 116.929688 C 83.128906 115.027344 89.246094 113.539062 95.363281 112.214844 C 101.480469 110.890625 107.679688 109.730469 113.878906 108.738281 C 126.277344 106.75 138.839844 105.425781 151.40625 104.597656 C 160.910156 103.9375 170.5 103.523438 180.003906 103.441406 C 180.914062 103.441406 181.660156 104.183594 181.660156 105.179688 C 181.660156 105.261719 181.660156 105.34375 181.660156 105.507812 C 181.328125 107.414062 180.75 109.316406 180.5 111.304688 C 180.253906 112.628906 180.171875 114.035156 180.253906 115.359375 Z M 161.65625 46.082031 C 161.738281 42.191406 162.316406 38.304688 163.226562 34.496094 C 164.21875 30.6875 165.539062 26.964844 167.441406 23.488281 C 169.257812 19.929688 171.492188 16.617188 174.136719 13.636719 C 174.796875 12.894531 175.460938 12.148438 176.121094 11.402344 L 176.203125 11.320312 C 176.945312 10.574219 177.609375 9.914062 178.351562 9.25 L 180.667969 7.183594 C 181.078125 6.851562 181.410156 6.519531 181.824219 6.1875 C 182.484375 5.609375 183.394531 5.609375 183.972656 6.1875 C 184.386719 6.519531 184.800781 6.851562 185.128906 7.183594 L 187.445312 9.25 C 188.1875 9.996094 188.851562 10.660156 189.59375 11.320312 L 189.675781 11.402344 C 190.335938 12.148438 191 12.894531 191.660156 13.636719 C 192.320312 14.382812 192.898438 15.210938 193.5625 15.957031 C 194.222656 16.699219 194.71875 17.609375 195.296875 18.4375 C 195.875 19.265625 196.371094 20.09375 196.867188 20.921875 C 197.363281 21.75 197.859375 22.660156 198.273438 23.488281 C 200.007812 26.964844 201.414062 30.6875 202.242188 34.496094 C 203.148438 38.304688 203.5625 42.191406 203.480469 46.082031 C 203.480469 49.972656 202.984375 53.78125 202.074219 57.585938 C 201.167969 61.394531 199.761719 65.035156 197.859375 68.429688 C 195.957031 71.90625 193.644531 75.050781 191 77.949219 C 190.253906 78.691406 189.59375 79.4375 188.851562 80.183594 C 188.1875 80.84375 187.195312 80.84375 186.535156 80.265625 C 186.203125 79.933594 185.957031 79.519531 186.039062 79.023438 C 186.039062 78.859375 186.039062 78.609375 186.039062 78.363281 C 186.039062 76.953125 185.875 75.628906 185.792969 74.222656 C 185.707031 72.816406 185.460938 71.492188 185.296875 70.085938 C 184.882812 67.269531 184.222656 64.539062 183.3125 61.890625 L 182.734375 61.890625 C 181.824219 64.539062 181.164062 67.355469 180.75 70.085938 C 180.5 71.492188 180.335938 72.816406 180.253906 74.222656 C 180.171875 75.628906 180.003906 76.953125 180.003906 78.363281 C 180.003906 78.941406 180.003906 79.601562 180.003906 80.183594 C 180.089844 81.09375 179.34375 81.839844 178.433594 81.921875 C 178.023438 81.921875 177.609375 81.839844 177.277344 81.507812 C 173.0625 78.113281 169.507812 73.890625 166.945312 69.007812 L 166.285156 67.683594 C 166.117188 67.1875 165.789062 66.773438 165.621094 66.277344 L 165.042969 64.871094 C 164.878906 64.375 164.628906 63.960938 164.546875 63.464844 C 164.21875 62.472656 163.886719 61.558594 163.640625 60.648438 C 163.390625 59.738281 163.144531 58.746094 162.894531 57.753906 C 161.902344 54.027344 161.574219 50.054688 161.65625 46.082031 Z M 17.746094 102.53125 C 18.15625 101.289062 18.902344 100.128906 19.894531 99.300781 C 21.050781 98.226562 22.375 97.234375 23.695312 96.40625 C 25.101562 95.496094 26.589844 94.75 28.160156 93.921875 C 31.300781 92.347656 34.523438 91.023438 37.832031 89.867188 C 44.609375 87.550781 51.46875 85.5625 58.414062 83.90625 C 65.355469 82.253906 72.464844 80.84375 79.574219 79.6875 C 93.792969 77.285156 108.089844 75.382812 122.472656 73.976562 C 136.195312 72.652344 149.917969 71.65625 163.722656 70.914062 C 164.300781 70.914062 164.878906 71.160156 165.210938 71.65625 C 167.277344 74.804688 169.589844 77.699219 172.234375 80.347656 C 174.550781 82.664062 176.945312 84.734375 179.59375 86.636719 C 180.003906 86.886719 180.253906 87.382812 180.253906 87.878906 C 180.335938 88.789062 180.417969 89.699219 180.585938 90.613281 C 180.75 92.019531 181.078125 93.34375 181.328125 94.75 C 181.492188 95.742188 181.660156 96.652344 181.824219 97.5625 C 181.90625 98.472656 181.328125 99.300781 180.417969 99.46875 C 180.335938 99.46875 180.253906 99.46875 180.171875 99.46875 C 170.5 99.632812 160.746094 100.046875 151.074219 100.710938 C 138.425781 101.621094 125.78125 102.945312 113.214844 104.929688 C 100.652344 106.917969 88.171875 109.480469 76.019531 113.621094 C 72.960938 114.613281 69.984375 115.773438 67.007812 117.015625 C 64.035156 118.253906 61.140625 119.746094 58.332031 121.316406 C 57.835938 121.566406 57.421875 121.898438 57.007812 122.144531 C 56.59375 122.394531 56.179688 122.476562 55.683594 122.394531 C 52.046875 121.566406 48.492188 120.574219 44.941406 119.578125 C 41.386719 118.585938 38.160156 117.429688 34.855469 116.1875 C 31.632812 114.945312 28.40625 113.539062 25.347656 111.800781 C 23.863281 110.972656 22.539062 110.0625 21.214844 108.984375 C 20.058594 108.074219 19.066406 106.917969 18.324219 105.675781 C 17.660156 104.765625 17.496094 103.605469 17.746094 102.53125 Z M 361.773438 156.328125 L 361.359375 181.65625 L 361.03125 206.980469 C 360.617188 240.75 360.367188 274.519531 360.203125 308.289062 L 360.203125 324.097656 C 360.203125 324.839844 360.039062 325.667969 359.871094 326.414062 C 359.292969 328.070312 358.46875 329.558594 357.394531 330.800781 C 356.152344 332.207031 354.746094 333.53125 353.261719 334.691406 C 351.691406 335.933594 350.035156 337.007812 348.382812 338 C 346.648438 338.996094 344.910156 339.988281 343.011719 340.898438 C 341.109375 341.808594 339.289062 342.636719 337.390625 343.464844 C 329.703125 346.609375 321.765625 349.175781 313.75 351.246094 C 305.648438 353.3125 297.464844 355.132812 289.28125 356.625 C 272.832031 359.605469 256.136719 361.589844 239.355469 362.996094 C 235.140625 363.328125 231.007812 363.660156 226.789062 363.90625 C 222.574219 364.15625 218.359375 364.402344 214.226562 364.652344 C 205.796875 365.066406 197.445312 365.316406 189.015625 365.480469 C 180.585938 365.5625 172.152344 365.5625 163.804688 365.316406 C 159.589844 365.230469 155.371094 365.066406 151.238281 364.902344 C 147.105469 364.734375 142.808594 364.488281 138.675781 364.15625 C 121.894531 363.078125 105.199219 361.011719 88.582031 358.03125 C 80.316406 356.542969 72.132812 354.71875 64.035156 352.484375 C 61.96875 351.90625 59.984375 351.328125 58 350.746094 C 27.828125 340.734375 17.660156 301.832031 17.660156 301.832031 C 17.746094 287.101562 17.746094 272.367188 17.660156 257.636719 L 17.496094 232.308594 L 17.25 206.980469 C 17.164062 198.539062 17.082031 190.097656 16.917969 181.65625 L 16.753906 168.992188 L 16.503906 156.328125 C 16.339844 148.878906 16.175781 141.429688 16.007812 133.980469 C 16.007812 133.816406 16.007812 133.648438 16.089844 133.566406 C 18.15625 124.628906 23.695312 120.65625 26.589844 119.082031 C 27.003906 118.835938 27.582031 118.835938 28.078125 119 C 29.730469 119.664062 31.300781 120.324219 32.953125 120.902344 C 36.425781 122.144531 39.980469 123.222656 43.453125 124.214844 C 46.097656 124.960938 48.660156 125.621094 51.304688 126.203125 C 50.972656 126.53125 50.644531 126.863281 50.3125 127.195312 C 49.074219 128.4375 48.082031 129.84375 47.253906 131.332031 C 46.425781 132.90625 46.015625 134.726562 45.929688 136.546875 L 46.511719 150.453125 C 46.179688 159.554688 45.929688 168.578125 45.765625 177.683594 L 45.601562 188.027344 L 45.433594 198.292969 C 45.269531 205.160156 45.1875 212.03125 45.105469 218.898438 L 44.855469 239.507812 L 44.691406 260.117188 C 44.609375 266.988281 44.609375 273.855469 44.609375 280.726562 C 44.609375 287.597656 44.609375 294.464844 44.609375 301.335938 L 44.691406 311.597656 L 44.691406 314.246094 C 44.691406 315.40625 44.941406 316.480469 45.269531 317.558594 C 45.929688 319.542969 47.007812 321.367188 48.410156 322.9375 C 49.652344 324.34375 51.054688 325.667969 52.542969 326.828125 C 54.03125 327.902344 55.519531 328.980469 57.089844 329.890625 C 60.230469 331.628906 63.457031 333.199219 66.761719 334.523438 C 73.292969 337.089844 79.90625 339.160156 86.683594 340.734375 C 93.378906 342.386719 100.15625 343.710938 107.015625 344.871094 C 120.65625 347.1875 134.292969 348.679688 148.097656 349.671875 C 161.902344 350.664062 175.542969 351.078125 189.347656 351.078125 C 203.148438 351.078125 216.871094 350.582031 230.59375 349.589844 C 244.316406 348.59375 258.035156 346.941406 271.59375 344.621094 C 278.371094 343.464844 285.148438 342.058594 291.84375 340.402344 C 298.621094 338.746094 305.234375 336.675781 311.683594 334.113281 C 314.988281 332.789062 318.128906 331.296875 321.269531 329.558594 C 322.839844 328.648438 324.328125 327.65625 325.816406 326.578125 C 327.304688 325.421875 328.710938 324.179688 329.949219 322.691406 C 331.273438 321.117188 332.265625 319.378906 332.925781 317.390625 C 333.257812 316.398438 333.421875 315.324219 333.421875 314.246094 L 333.421875 311.597656 C 333.421875 308.207031 333.503906 304.730469 333.503906 301.335938 C 333.503906 287.597656 333.503906 273.855469 333.421875 260.117188 L 333.257812 239.507812 L 333.007812 218.898438 L 332.761719 198.292969 C 332.679688 191.421875 332.59375 184.550781 332.429688 177.683594 C 332.183594 163.941406 331.851562 150.203125 331.4375 136.464844 C 331.4375 134.808594 331.023438 133.238281 330.28125 131.746094 C 329.535156 130.339844 328.628906 128.933594 327.46875 127.773438 C 326.726562 126.945312 325.980469 126.203125 325.074219 125.457031 C 327.882812 124.792969 330.695312 124.132812 333.503906 123.386719 C 333.503906 123.386719 360.203125 130.089844 362.351562 144.574219 C 362.351562 144.660156 362.351562 144.742188 362.351562 144.90625 Z M 131.980469 185.628906 C 135.617188 186.125 139.253906 186.871094 142.808594 187.945312 L 142.808594 188.523438 C 139.171875 189.351562 135.453125 189.933594 131.730469 190.179688 C 129.914062 190.261719 128.011719 190.34375 126.195312 190.34375 C 124.375 190.34375 122.472656 190.34375 120.65625 190.179688 C 118.835938 190.015625 117.019531 189.683594 115.117188 189.351562 C 113.214844 189.019531 111.480469 188.773438 109.660156 188.359375 C 107.84375 187.945312 106.023438 187.695312 104.207031 187.449219 L 102.800781 187.199219 L 101.394531 186.953125 L 98.667969 186.371094 C 95.03125 185.710938 91.394531 184.632812 87.839844 183.722656 L 82.46875 182.070312 C 80.648438 181.488281 78.914062 180.828125 77.175781 180.082031 C 76.761719 179.917969 76.269531 179.75 75.855469 179.503906 C 75.441406 179.335938 75.027344 179.089844 74.613281 178.839844 C 73.789062 178.425781 72.960938 178.011719 72.132812 177.515625 C 71.308594 177.019531 70.480469 176.523438 69.738281 176.027344 C 68.992188 175.53125 68.167969 175.035156 67.339844 174.453125 C 66.515625 173.875 65.851562 173.378906 65.027344 172.800781 C 64.199219 172.21875 63.539062 171.558594 62.875 170.976562 C 61.472656 169.738281 60.148438 168.328125 59.074219 166.757812 L 59.488281 166.34375 C 62.628906 168.082031 65.933594 169.652344 69.324219 170.976562 C 70.152344 171.308594 70.976562 171.640625 71.804688 171.972656 L 74.285156 172.964844 C 76.019531 173.542969 77.589844 174.207031 79.324219 174.785156 C 80.152344 175.117188 80.980469 175.363281 81.804688 175.695312 L 83.046875 176.191406 C 83.457031 176.359375 83.871094 176.523438 84.285156 176.6875 L 89.328125 178.425781 L 89.410156 178.425781 C 92.882812 179.335938 96.269531 180.414062 99.824219 181.074219 L 102.46875 181.65625 L 103.710938 181.902344 L 103.792969 181.902344 L 105.117188 182.152344 C 106.933594 182.484375 108.671875 182.730469 110.488281 182.980469 C 112.308594 183.226562 114.042969 183.308594 115.863281 183.476562 C 117.679688 183.640625 119.5 183.722656 121.234375 183.972656 C 124.789062 184.386719 128.34375 184.964844 131.980469 185.628906 Z M 312.011719 311.183594 L 312.425781 311.597656 C 310.441406 314.910156 307.878906 317.804688 304.902344 320.289062 C 304.160156 320.867188 303.417969 321.53125 302.671875 322.109375 C 301.929688 322.691406 301.101562 323.1875 300.273438 323.765625 C 299.449219 324.34375 298.621094 324.757812 297.796875 325.253906 C 296.96875 325.753906 296.140625 326.164062 295.234375 326.578125 C 291.761719 328.152344 288.125 329.394531 284.40625 330.222656 C 283.496094 330.386719 282.585938 330.71875 281.675781 330.882812 C 280.765625 331.050781 279.859375 331.214844 278.867188 331.378906 C 277.875 331.546875 276.964844 331.628906 276.054688 331.710938 C 275.148438 331.792969 274.15625 331.875 273.246094 331.875 C 269.527344 332.042969 265.804688 332.457031 262.167969 333.117188 C 258.53125 333.78125 254.894531 335.023438 251.175781 335.683594 C 250.265625 335.847656 249.355469 335.933594 248.363281 336.015625 C 247.371094 336.097656 246.546875 336.097656 245.554688 336.097656 C 243.652344 336.097656 241.835938 336.015625 239.933594 335.933594 C 238.03125 335.765625 236.214844 335.519531 234.3125 335.1875 C 232.410156 334.855469 230.59375 334.359375 228.855469 333.699219 L 228.855469 333.117188 C 230.757812 332.703125 232.578125 332.375 234.394531 332.125 C 236.214844 331.875 238.03125 331.628906 239.851562 331.464844 C 241.667969 331.296875 243.488281 331.132812 245.304688 331.050781 C 247.125 330.882812 248.945312 330.882812 250.761719 330.964844 C 254.398438 331.132812 258.117188 331.710938 261.839844 331.378906 C 263.65625 331.214844 265.476562 330.964844 267.292969 330.550781 C 269.113281 330.136719 270.847656 329.558594 272.585938 328.898438 C 274.320312 328.316406 275.972656 327.574219 277.710938 326.992188 C 278.535156 326.664062 279.363281 326.332031 280.273438 326.082031 C 281.179688 325.835938 281.925781 325.421875 282.835938 325.171875 C 286.222656 323.929688 289.445312 322.523438 292.753906 321.117188 C 296.058594 319.710938 299.285156 318.386719 302.425781 316.730469 C 305.566406 315.074219 308.707031 313.089844 312.011719 311.183594 Z M 259.359375 222.625 C 258.117188 222.375 256.878906 222.128906 255.640625 221.714844 C 260.679688 220.804688 265.476562 219.894531 270.1875 218.734375 C 274.816406 217.660156 279.445312 216.167969 283.824219 214.429688 C 286.058594 213.519531 288.207031 212.527344 290.273438 211.449219 C 291.347656 210.953125 292.339844 210.292969 293.414062 209.714844 C 294.488281 209.132812 295.480469 208.472656 296.390625 207.808594 C 300.441406 204.996094 304.160156 201.851562 307.632812 198.375 C 307.464844 198.953125 307.21875 199.53125 306.96875 200.195312 L 306.640625 201.105469 C 306.476562 201.4375 306.390625 201.683594 306.226562 201.933594 C 305.980469 202.511719 305.648438 203.007812 305.398438 203.589844 L 305.316406 203.671875 C 304.988281 204.167969 304.65625 204.746094 304.324219 205.242188 L 303.746094 205.988281 L 303.664062 206.070312 L 303.085938 206.816406 C 302.671875 207.3125 302.257812 207.890625 301.84375 208.386719 C 301.019531 209.382812 300.109375 210.375 299.117188 211.285156 C 298.621094 211.699219 298.207031 212.195312 297.628906 212.609375 L 296.140625 213.933594 C 295.066406 214.761719 293.992188 215.507812 292.917969 216.167969 C 291.761719 216.832031 290.6875 217.492188 289.53125 218.074219 L 289.445312 218.074219 L 287.710938 218.898438 C 287.132812 219.230469 286.472656 219.398438 285.890625 219.644531 C 278.617188 222.542969 270.847656 223.699219 263.078125 223.039062 C 261.921875 222.957031 260.597656 222.789062 259.359375 222.625 Z M 259.359375 222.625 " fill-opacity="1" fill-rule="nonzero"/></g></svg>