<svg xmlns="http://www.w3.org/2000/svg" xmlns:xlink="http://www.w3.org/1999/xlink" width="500" zoomAndPan="magnify" viewBox="0 0 375 374.999991" height="500" preserveAspectRatio="xMidYMid meet" version="1.0"><defs><clipPath id="d2035e8e96"><path d="M 113.054688 110.949219 L 262.304688 110.949219 L 262.304688 263.949219 L 113.054688 263.949219 Z M 113.054688 110.949219 " clip-rule="nonzero"/></clipPath></defs><path fill="#ffffff" d="M 193.226562 137.921875 L 196.703125 138.269531 L 201.988281 138.269531 L 226.539062 140.105469 L 247.234375 143.78125 L 254.257812 145.964844 L 258.394531 148.496094 L 261.179688 151.546875 L 261.003906 163.683594 L 260.726562 203.898438 L 260.726562 242.554688 L 260.414062 247.6875 L 256.414062 250.289062 L 252.03125 253.339844 L 240.730469 257.847656 L 221.183594 261.210938 L 199.34375 262.875 L 181.15625 262.875 L 158.761719 261.3125 L 136.539062 258.261719 L 125.027344 253.476562 L 117.621094 248.136719 L 114.839844 242.902344 L 114.839844 235.378906 L 114.003906 202.476562 L 114.316406 167.84375 L 114.003906 151.582031 L 115.464844 148.945312 L 127.464844 143.988281 L 146.136719 140.800781 L 157.996094 139.238281 L 172.8125 138.546875 L 176.21875 138.269531 Z M 193.226562 137.921875 " fill-opacity="1" fill-rule="nonzero"/><path fill="#f0db83" d="M 185.367188 111.085938 L 186.164062 111.539062 L 186.792969 112.023438 L 188.53125 113.515625 L 190.410156 115.210938 L 193.433594 118.921875 L 194.929688 124.746094 L 195.3125 127.242188 L 195.449219 129.914062 L 193.988281 134.800781 L 193.15625 136.8125 L 191.867188 139.066406 L 189.957031 141.804688 L 187.589844 143.78125 L 184.878906 145.582031 L 182.375 143.503906 L 178.828125 139.898438 L 176.082031 135.53125 L 174.898438 129.183594 L 174.898438 124.433594 L 177.261719 118.332031 L 180.949219 113.617188 L 184.878906 111.015625 Z M 185.367188 111.085938 " fill-opacity="1" fill-rule="nonzero"/><path fill="#cfd9cc" d="M 156.605469 153.074219 L 175.070312 151.617188 L 199.03125 151.617188 L 217.289062 153.351562 L 225.914062 153.9375 L 239.964844 158.863281 L 243.304688 160.5625 L 245.875 165.554688 L 246.605469 174.984375 L 247.164062 228.339844 L 246.605469 241.621094 L 245.390625 244.359375 L 240.519531 247.273438 L 232.730469 249.558594 L 221.949219 252.75 L 201.78125 254.484375 L 187.660156 255.523438 L 169.402344 254.484375 L 152.710938 252.402344 L 138.3125 249.074219 L 132.921875 247.617188 L 127.464844 241.96875 L 127.464844 202.097656 L 127.914062 176.09375 L 128.332031 165.554688 L 130.28125 161.914062 L 133.445312 159.730469 L 142.660156 156.503906 L 150 154.492188 Z M 156.605469 153.074219 " fill-opacity="1" fill-rule="nonzero"/><g clip-path="url(#d2035e8e96)"><path fill="#3e3238" d="M 262.1875 244.464844 L 262.1875 237.980469 C 262.117188 223.835938 262.011719 209.6875 261.839844 195.542969 L 261.699219 184.933594 L 261.527344 174.324219 L 261.351562 165.933594 L 261.628906 152.207031 C 261.628906 151.71875 261.527344 151.269531 261.351562 150.820312 C 261.179688 150.402344 260.96875 150.023438 260.691406 149.675781 L 260.65625 149.640625 C 260.515625 149.46875 260.414062 149.292969 260.273438 149.15625 L 260.066406 148.910156 L 259.855469 148.703125 C 259.265625 148.148438 258.605469 147.628906 257.945312 147.214844 C 257.28125 146.796875 256.585938 146.382812 255.890625 146.035156 C 254.5 145.339844 253.039062 144.75 251.542969 144.265625 C 250.085938 143.78125 248.589844 143.363281 247.09375 143.019531 C 241.148438 141.597656 235.09375 140.554688 228.976562 139.898438 C 218.230469 138.71875 207.414062 138.128906 196.5625 138.199219 L 196.597656 138.199219 C 194.339844 137.921875 194.929688 135.390625 194.929688 135.390625 C 197.222656 129.601562 196.527344 123.046875 193.121094 117.8125 C 192.878906 117.429688 192.597656 117.085938 192.355469 116.703125 C 192.113281 116.320312 191.800781 116.011719 191.484375 115.664062 C 191.171875 115.316406 190.859375 115.003906 190.582031 114.65625 C 190.304688 114.3125 189.921875 114.035156 189.574219 113.722656 C 189.226562 113.410156 188.878906 113.167969 188.53125 112.890625 C 188.183594 112.613281 187.800781 112.402344 187.453125 112.160156 L 187.417969 112.125 C 187.035156 111.917969 186.652344 111.675781 186.304688 111.46875 C 185.992188 111.292969 185.644531 111.15625 185.332031 111.015625 C 185.15625 110.949219 184.949219 110.949219 184.773438 111.015625 C 184.460938 111.15625 184.148438 111.292969 183.800781 111.46875 L 183.765625 111.503906 C 183.382812 111.710938 183.035156 111.917969 182.652344 112.160156 L 182.617188 112.195312 C 182.269531 112.4375 181.886719 112.683594 181.539062 112.925781 C 181.191406 113.167969 180.84375 113.480469 180.496094 113.757812 C 179.140625 114.933594 177.921875 116.320312 176.984375 117.847656 C 176.011719 119.40625 175.246094 121.070312 174.757812 122.839844 C 174.238281 124.609375 174.027344 126.410156 174.0625 128.25 C 174.097656 128.699219 174.132812 129.148438 174.167969 129.601562 L 174.167969 129.636719 C 174.203125 130.085938 174.273438 130.535156 174.339844 130.953125 C 174.410156 131.367188 174.550781 131.855469 174.621094 132.269531 C 174.6875 132.6875 174.863281 133.136719 175.003906 133.585938 C 175.140625 134.003906 175.316406 134.417969 175.453125 134.871094 C 175.59375 135.320312 175.800781 135.703125 176.011719 136.117188 C 176.011719 136.117188 176.777344 138.335938 174.273438 138.40625 L 174.339844 138.40625 C 163.316406 138.582031 152.292969 139.203125 141.339844 140.660156 C 138.3125 141.078125 135.289062 141.5625 132.261719 142.1875 C 129.238281 142.777344 126.246094 143.539062 123.289062 144.472656 C 122.558594 144.71875 121.792969 144.960938 121.066406 145.238281 C 120.335938 145.515625 119.605469 145.828125 118.875 146.171875 C 118.144531 146.519531 117.449219 146.902344 116.753906 147.351562 C 116.023438 147.800781 115.359375 148.324219 114.769531 148.945312 C 114.457031 149.292969 114.144531 149.640625 113.902344 150.023438 C 113.621094 150.4375 113.414062 150.921875 113.308594 151.410156 C 113.238281 151.71875 113.207031 152.066406 113.207031 152.378906 L 113.796875 166.074219 C 113.726562 168.882812 113.65625 171.691406 113.621094 174.535156 L 113.519531 179.839844 L 113.449219 185.140625 C 113.414062 188.679688 113.34375 192.214844 113.308594 195.75 L 113.207031 206.359375 L 113.171875 216.96875 C 113.136719 224.042969 113.136719 231.117188 113.207031 238.1875 C 113.207031 239.957031 113.238281 241.722656 113.273438 243.492188 L 113.273438 244.84375 C 113.308594 245.398438 113.378906 245.917969 113.554688 246.441406 C 113.867188 247.410156 114.386719 248.3125 115.082031 249.074219 C 115.710938 249.800781 116.40625 250.460938 117.167969 251.015625 C 117.898438 251.570312 118.699219 252.089844 119.5 252.542969 C 121.097656 253.441406 122.734375 254.207031 124.4375 254.863281 C 127.777344 256.148438 131.21875 257.1875 134.695312 258.019531 C 138.175781 258.886719 141.652344 259.546875 145.164062 260.167969 C 152.1875 261.347656 159.25 262.179688 166.34375 262.769531 C 173.4375 263.359375 180.53125 263.671875 187.660156 263.773438 C 201.882812 263.949219 216.175781 263.21875 230.261719 260.792969 C 233.773438 260.167969 237.285156 259.476562 240.765625 258.609375 C 244.277344 257.742188 247.71875 256.632812 251.058594 255.316406 C 252.761719 254.621094 254.394531 253.824219 255.996094 252.886719 C 256.796875 252.402344 257.597656 251.882812 258.324219 251.292969 C 259.089844 250.703125 259.820312 250.011719 260.449219 249.28125 C 261.144531 248.484375 261.664062 247.550781 261.976562 246.542969 C 262.152344 246.023438 262.222656 245.46875 262.222656 244.878906 L 262.222656 244.707031 Z M 201.535156 138.890625 C 204.5625 139.066406 207.621094 139.273438 210.648438 139.515625 C 212.179688 139.621094 213.671875 139.757812 215.203125 139.933594 C 216.734375 140.105469 218.230469 140.246094 219.722656 140.382812 C 222.75 140.695312 225.742188 141.078125 228.765625 141.527344 C 231.792969 141.945312 234.78125 142.464844 237.738281 143.019531 C 240.695312 143.574219 243.652344 144.230469 246.570312 145.027344 C 248.03125 145.410156 249.457031 145.859375 250.882812 146.3125 C 252.308594 146.796875 253.699219 147.28125 255.058594 147.835938 C 256.414062 148.355469 257.664062 149.050781 258.8125 149.917969 L 259.023438 150.089844 L 259.195312 150.265625 C 259.335938 150.367188 259.402344 150.507812 259.542969 150.609375 C 259.75 150.855469 259.925781 151.097656 260.03125 151.375 C 260.132812 151.617188 260.203125 151.894531 260.203125 152.207031 C 260.203125 152.484375 260.132812 152.761719 260.03125 153.039062 C 259.890625 153.316406 259.75 153.59375 259.542969 153.835938 C 259.335938 154.113281 259.089844 154.355469 258.847656 154.5625 C 258.324219 155.046875 257.734375 155.464844 257.109375 155.847656 C 256.484375 156.226562 255.820312 156.574219 255.160156 156.886719 C 254.5 157.199219 253.804688 157.511719 253.109375 157.789062 C 251.71875 158.34375 250.292969 158.828125 248.832031 159.242188 C 247.371094 159.660156 245.910156 160.074219 244.449219 160.421875 L 243.964844 160.527344 C 243.753906 160.5625 243.546875 160.527344 243.371094 160.386719 C 243.09375 160.179688 242.816406 160.007812 242.539062 159.832031 C 240.242188 158.378906 237.808594 157.199219 235.199219 156.402344 C 230.085938 154.667969 224.835938 153.59375 219.550781 152.761719 C 214.265625 151.929688 208.945312 151.410156 203.589844 151.027344 C 198.234375 150.644531 192.910156 150.507812 187.554688 150.507812 L 186.128906 150.507812 C 185.75 150.507812 185.433594 150.195312 185.433594 149.8125 C 185.433594 149.777344 185.433594 149.746094 185.433594 149.710938 C 185.46875 149.328125 185.539062 148.945312 185.644531 148.53125 C 185.75 147.941406 185.886719 147.386719 185.957031 146.796875 C 185.992188 146.484375 186.027344 146.171875 186.0625 145.859375 C 186.0625 145.617188 186.199219 145.410156 186.410156 145.304688 C 187.625 144.613281 188.773438 143.78125 189.78125 142.84375 C 191.136719 141.597656 192.285156 140.175781 193.226562 138.613281 L 193.328125 138.441406 L 196.945312 138.613281 C 198.511719 138.683594 200.042969 138.789062 201.535156 138.890625 Z M 246.222656 239.4375 L 246.222656 240.511719 C 246.222656 240.789062 246.1875 241.03125 246.121094 241.308594 C 245.945312 241.863281 245.632812 242.382812 245.25 242.832031 C 244.378906 243.839844 243.335938 244.671875 242.15625 245.332031 C 240.9375 246.058594 239.6875 246.683594 238.398438 247.203125 C 235.757812 248.277344 233.078125 249.179688 230.332031 249.90625 C 227.582031 250.632812 224.765625 251.222656 221.949219 251.746094 C 216.28125 252.75 210.578125 253.441406 204.875 253.859375 C 199.136719 254.273438 193.398438 254.484375 187.625 254.484375 C 181.851562 254.484375 176.113281 254.242188 170.410156 253.789062 C 164.675781 253.375 158.96875 252.644531 153.335938 251.640625 C 150.519531 251.121094 147.703125 250.496094 144.957031 249.769531 C 142.207031 249.039062 139.53125 248.136719 136.886719 247.0625 C 135.601562 246.542969 134.382812 245.886719 133.167969 245.191406 C 132.019531 244.53125 131.011719 243.699219 130.140625 242.730469 C 129.792969 242.277344 129.515625 241.792969 129.339844 241.273438 C 129.273438 241.03125 129.238281 240.789062 129.238281 240.546875 L 129.238281 239.472656 L 129.273438 235.171875 C 129.273438 232.292969 129.304688 229.417969 129.273438 226.539062 C 129.238281 223.660156 129.273438 220.785156 129.238281 217.90625 L 129.167969 209.273438 L 129.0625 200.640625 C 129.027344 197.761719 128.957031 194.886719 128.925781 192.007812 L 128.855469 187.707031 L 128.785156 183.410156 C 128.714844 179.664062 128.574219 175.921875 128.472656 172.175781 C 132.4375 174.464844 136.886719 175.746094 141.441406 175.921875 L 141.410156 175.921875 C 142.277344 176.164062 143.183594 176.371094 144.050781 176.613281 C 145.339844 176.960938 146.660156 177.273438 147.945312 177.550781 C 149.234375 177.828125 150.554688 178.140625 151.875 178.382812 C 153.199219 178.625 154.484375 178.867188 155.804688 179.109375 C 166.34375 180.914062 177.019531 181.746094 187.695312 181.988281 C 193.050781 182.089844 198.40625 181.953125 203.726562 181.535156 C 208.214844 181.191406 212.699219 180.566406 217.152344 179.804688 C 219.167969 179.457031 221.21875 179.25 223.273438 179.214844 C 229.460938 179.074219 241.808594 179.351562 246.746094 183.375 C 246.675781 186.253906 246.640625 189.128906 246.605469 192.007812 L 246.503906 200.640625 L 246.398438 209.273438 L 246.328125 217.90625 C 246.292969 223.660156 246.257812 229.417969 246.292969 235.171875 C 246.1875 236.558594 246.222656 238.015625 246.222656 239.4375 Z M 241.179688 172.140625 C 240.3125 172.523438 239.40625 172.871094 238.539062 173.214844 C 237.320312 173.667969 236.035156 174.046875 234.78125 174.429688 L 230.992188 175.539062 C 229.738281 175.921875 228.453125 176.265625 227.167969 176.578125 C 225.878906 176.890625 224.558594 177.097656 223.273438 177.339844 C 221.984375 177.585938 220.664062 177.757812 219.34375 177.929688 C 214.089844 178.589844 208.804688 178.9375 203.519531 179.25 C 198.234375 179.5625 192.945312 179.769531 187.625 179.871094 C 182.304688 179.976562 177.019531 179.941406 171.734375 179.664062 C 166.449219 179.386719 161.160156 178.9375 155.875 178.207031 C 153.265625 177.828125 150.625 177.410156 148.050781 176.820312 C 145.476562 176.265625 142.902344 175.574219 140.398438 174.742188 C 139.148438 174.324219 137.894531 173.875 136.679688 173.355469 C 135.460938 172.835938 134.3125 172.28125 133.167969 171.621094 C 132.609375 171.308594 132.054688 170.929688 131.53125 170.546875 L 131.429688 170.441406 L 128.957031 167.597656 C 128.890625 167.53125 128.855469 167.460938 128.820312 167.390625 C 128.472656 166.457031 128.542969 165.414062 129.0625 164.582031 C 129.339844 164.0625 129.722656 163.578125 130.140625 163.125 C 130.417969 162.882812 130.664062 162.640625 130.976562 162.398438 C 131.148438 162.261719 131.359375 162.226562 131.566406 162.261719 C 132.855469 162.539062 134.105469 162.78125 135.390625 163.023438 C 141.410156 164.132812 147.496094 164.859375 153.582031 165.449219 C 159.667969 166.039062 165.75 166.351562 171.835938 166.558594 C 177.921875 166.765625 184.042969 166.835938 190.128906 166.734375 C 202.335938 166.59375 214.507812 165.867188 226.644531 164.515625 C 228.175781 164.339844 229.671875 164.132812 231.164062 163.925781 C 232.660156 163.714844 234.191406 163.507812 235.6875 163.265625 C 237.980469 162.917969 240.277344 162.503906 242.539062 162.015625 C 242.539062 161.949219 248.136719 166.246094 241.179688 172.140625 Z M 183.90625 157.164062 C 183.941406 157.71875 183.976562 158.308594 184.042969 158.898438 C 184.113281 159.488281 184.21875 160.042969 184.355469 160.628906 C 184.496094 161.21875 184.671875 161.808594 184.878906 162.363281 L 185.121094 162.363281 C 185.332031 161.808594 185.539062 161.21875 185.644531 160.628906 C 185.78125 160.074219 185.851562 159.488281 185.921875 158.898438 C 185.992188 158.308594 186.027344 157.753906 186.0625 157.164062 C 186.097656 156.574219 186.0625 156.019531 185.992188 155.429688 C 185.886719 154.597656 185.644531 153.765625 185.503906 152.96875 C 185.433594 152.585938 185.679688 152.242188 186.0625 152.171875 C 186.097656 152.171875 186.164062 152.171875 186.199219 152.171875 L 187.589844 152.171875 C 192.878906 152.171875 198.199219 152.34375 203.484375 152.726562 C 208.769531 153.105469 214.054688 153.660156 219.273438 154.492188 C 221.878906 154.910156 224.488281 155.394531 227.097656 155.949219 C 228.382812 156.226562 229.671875 156.539062 230.957031 156.851562 C 232.242188 157.164062 233.496094 157.546875 234.746094 157.925781 C 236 158.308594 237.25 158.722656 238.46875 159.175781 C 239.09375 159.382812 239.6875 159.625 240.3125 159.867188 C 240.9375 160.109375 241.527344 160.386719 242.085938 160.664062 L 242.539062 160.875 C 240.207031 161.394531 237.878906 161.84375 235.511719 162.261719 C 234.015625 162.503906 232.523438 162.746094 231.027344 162.988281 C 229.53125 163.195312 228 163.402344 226.507812 163.578125 C 220.453125 164.304688 214.402344 164.792969 208.351562 165.101562 C 206.824219 165.171875 205.328125 165.242188 203.796875 165.3125 C 202.265625 165.378906 200.773438 165.414062 199.242188 165.449219 C 196.214844 165.519531 193.15625 165.554688 190.128906 165.554688 C 184.042969 165.554688 177.957031 165.414062 171.90625 165.101562 C 165.820312 164.792969 159.769531 164.339844 153.753906 163.714844 C 147.738281 163.09375 141.6875 162.226562 135.773438 161.046875 L 135.707031 161.011719 C 135.324219 160.941406 135.042969 160.597656 135.113281 160.214844 C 135.148438 159.972656 135.324219 159.765625 135.566406 159.660156 C 135.984375 159.488281 136.402344 159.3125 136.816406 159.140625 C 138.035156 158.65625 139.289062 158.238281 140.539062 157.824219 C 143.042969 157.023438 145.617188 156.402344 148.191406 155.847656 C 150.761719 155.292969 153.371094 154.804688 155.980469 154.390625 C 161.195312 153.558594 166.480469 153.003906 171.769531 152.65625 C 175.765625 152.378906 179.800781 152.207031 183.800781 152.171875 C 184.183594 152.171875 184.496094 152.484375 184.496094 152.898438 C 184.496094 152.933594 184.496094 152.96875 184.496094 153.039062 C 184.355469 153.835938 184.113281 154.632812 184.007812 155.464844 C 183.90625 156.019531 183.871094 156.609375 183.90625 157.164062 Z M 176.082031 128.144531 C 176.113281 126.515625 176.359375 124.886719 176.742188 123.289062 C 177.160156 121.695312 177.714844 120.136719 178.515625 118.679688 C 179.28125 117.1875 180.21875 115.800781 181.332031 114.554688 C 181.609375 114.242188 181.886719 113.929688 182.167969 113.617188 L 182.199219 113.582031 C 182.515625 113.269531 182.792969 112.992188 183.105469 112.714844 L 184.078125 111.847656 C 184.253906 111.710938 184.390625 111.570312 184.566406 111.433594 C 184.84375 111.191406 185.226562 111.191406 185.46875 111.433594 C 185.644531 111.570312 185.816406 111.710938 185.957031 111.847656 L 186.929688 112.714844 C 187.242188 113.027344 187.523438 113.304688 187.835938 113.582031 L 187.871094 113.617188 C 188.148438 113.929688 188.425781 114.242188 188.703125 114.554688 C 188.980469 114.867188 189.226562 115.210938 189.503906 115.523438 C 189.78125 115.835938 189.992188 116.21875 190.234375 116.566406 C 190.476562 116.910156 190.6875 117.257812 190.894531 117.605469 C 191.105469 117.953125 191.3125 118.332031 191.484375 118.679688 C 192.214844 120.136719 192.808594 121.695312 193.15625 123.289062 C 193.539062 124.886719 193.710938 126.515625 193.675781 128.144531 C 193.675781 129.773438 193.46875 131.367188 193.085938 132.964844 C 192.703125 134.558594 192.113281 136.085938 191.3125 137.503906 C 190.511719 138.960938 189.539062 140.277344 188.425781 141.492188 C 188.113281 141.804688 187.835938 142.117188 187.523438 142.429688 C 187.242188 142.707031 186.828125 142.707031 186.546875 142.464844 C 186.410156 142.324219 186.304688 142.152344 186.339844 141.945312 C 186.339844 141.875 186.339844 141.769531 186.339844 141.664062 C 186.339844 141.078125 186.269531 140.523438 186.234375 139.933594 C 186.199219 139.34375 186.097656 138.789062 186.027344 138.199219 C 185.851562 137.019531 185.574219 135.875 185.191406 134.765625 L 184.949219 134.765625 C 184.566406 135.875 184.289062 137.054688 184.113281 138.199219 C 184.007812 138.789062 183.941406 139.34375 183.90625 139.933594 C 183.871094 140.523438 183.800781 141.078125 183.800781 141.664062 C 183.800781 141.910156 183.800781 142.1875 183.800781 142.429688 C 183.835938 142.808594 183.523438 143.121094 183.140625 143.15625 C 182.964844 143.15625 182.792969 143.121094 182.652344 142.984375 C 180.878906 141.5625 179.382812 139.792969 178.304688 137.75 L 178.027344 137.195312 C 177.957031 136.984375 177.820312 136.8125 177.75 136.605469 L 177.507812 136.015625 C 177.4375 135.808594 177.332031 135.632812 177.296875 135.425781 C 177.160156 135.007812 177.019531 134.628906 176.914062 134.246094 C 176.8125 133.863281 176.707031 133.449219 176.601562 133.03125 C 176.183594 131.472656 176.046875 129.808594 176.082031 128.144531 Z M 115.535156 151.789062 C 115.710938 151.269531 116.023438 150.785156 116.4375 150.4375 C 116.925781 149.988281 117.484375 149.570312 118.039062 149.222656 C 118.628906 148.84375 119.257812 148.53125 119.917969 148.183594 C 121.238281 147.523438 122.59375 146.96875 123.984375 146.484375 C 126.835938 145.515625 129.722656 144.683594 132.644531 143.988281 C 135.566406 143.296875 138.558594 142.707031 141.546875 142.222656 C 147.527344 141.214844 153.546875 140.417969 159.597656 139.828125 C 165.371094 139.273438 171.140625 138.859375 176.949219 138.546875 C 177.191406 138.546875 177.4375 138.648438 177.574219 138.859375 C 178.445312 140.175781 179.417969 141.386719 180.53125 142.5 C 181.503906 143.46875 182.515625 144.335938 183.625 145.132812 C 183.800781 145.238281 183.90625 145.445312 183.90625 145.652344 C 183.941406 146.035156 183.976562 146.414062 184.042969 146.796875 C 184.113281 147.386719 184.253906 147.941406 184.355469 148.53125 C 184.425781 148.945312 184.496094 149.328125 184.566406 149.710938 C 184.601562 150.089844 184.355469 150.4375 183.976562 150.507812 C 183.941406 150.507812 183.90625 150.507812 183.871094 150.507812 C 179.800781 150.578125 175.699219 150.75 171.628906 151.027344 C 166.308594 151.410156 160.988281 151.964844 155.703125 152.796875 C 150.414062 153.628906 145.164062 154.703125 140.050781 156.4375 C 138.765625 156.851562 137.511719 157.335938 136.261719 157.855469 C 135.011719 158.378906 133.792969 159 132.609375 159.660156 C 132.402344 159.765625 132.226562 159.902344 132.054688 160.007812 C 131.878906 160.109375 131.707031 160.144531 131.496094 160.109375 C 129.96875 159.765625 128.472656 159.347656 126.976562 158.933594 C 125.480469 158.515625 124.125 158.03125 122.734375 157.511719 C 121.378906 156.992188 120.019531 156.402344 118.734375 155.671875 C 118.109375 155.324219 117.550781 154.945312 116.996094 154.492188 C 116.507812 154.113281 116.089844 153.628906 115.777344 153.105469 C 115.5 152.726562 115.429688 152.242188 115.535156 151.789062 Z M 260.273438 174.324219 L 260.101562 184.933594 L 259.960938 195.542969 C 259.785156 209.6875 259.683594 223.835938 259.613281 237.980469 L 259.613281 244.601562 C 259.613281 244.914062 259.542969 245.261719 259.472656 245.574219 C 259.230469 246.265625 258.882812 246.890625 258.429688 247.410156 C 257.910156 248 257.316406 248.554688 256.691406 249.039062 C 256.03125 249.558594 255.335938 250.011719 254.640625 250.425781 C 253.910156 250.84375 253.179688 251.257812 252.378906 251.640625 C 251.578125 252.023438 250.816406 252.367188 250.015625 252.714844 C 246.78125 254.03125 243.441406 255.105469 240.070312 255.972656 C 236.660156 256.839844 233.21875 257.601562 229.773438 258.226562 C 222.855469 259.476562 215.828125 260.308594 208.769531 260.898438 C 206.996094 261.035156 205.257812 261.175781 203.484375 261.277344 C 201.710938 261.382812 199.9375 261.488281 198.199219 261.589844 C 194.652344 261.765625 191.136719 261.867188 187.589844 261.9375 C 184.042969 261.972656 180.496094 261.972656 176.984375 261.867188 C 175.210938 261.832031 173.4375 261.765625 171.699219 261.695312 C 169.960938 261.625 168.152344 261.519531 166.414062 261.382812 C 159.351562 260.933594 152.328125 260.066406 145.339844 258.816406 C 141.859375 258.191406 138.417969 257.429688 135.011719 256.492188 C 134.140625 256.25 133.304688 256.007812 132.472656 255.765625 C 119.777344 251.570312 115.5 235.277344 115.5 235.277344 C 115.535156 229.105469 115.535156 222.933594 115.5 216.761719 L 115.429688 206.152344 L 115.328125 195.542969 C 115.292969 192.007812 115.257812 188.472656 115.1875 184.933594 L 115.117188 179.628906 L 115.011719 174.324219 C 114.945312 171.207031 114.875 168.085938 114.804688 164.964844 C 114.804688 164.894531 114.804688 164.824219 114.839844 164.792969 C 115.710938 161.046875 118.039062 159.382812 119.257812 158.722656 C 119.429688 158.621094 119.671875 158.621094 119.882812 158.6875 C 120.578125 158.964844 121.238281 159.242188 121.933594 159.488281 C 123.394531 160.007812 124.890625 160.457031 126.351562 160.875 C 127.464844 161.183594 128.542969 161.460938 129.652344 161.707031 C 129.515625 161.84375 129.375 161.984375 129.238281 162.121094 C 128.714844 162.640625 128.296875 163.230469 127.949219 163.855469 C 127.601562 164.515625 127.429688 165.277344 127.394531 166.039062 L 127.636719 171.863281 C 127.5 175.675781 127.394531 179.457031 127.324219 183.269531 L 127.253906 187.605469 L 127.183594 191.902344 C 127.117188 194.78125 127.082031 197.660156 127.046875 200.535156 L 126.941406 209.167969 L 126.871094 217.800781 C 126.835938 220.679688 126.835938 223.558594 126.835938 226.433594 C 126.835938 229.3125 126.835938 232.191406 126.835938 235.066406 L 126.871094 239.367188 L 126.871094 240.476562 C 126.871094 240.960938 126.976562 241.414062 127.117188 241.863281 C 127.394531 242.695312 127.847656 243.457031 128.4375 244.117188 C 128.957031 244.707031 129.550781 245.261719 130.175781 245.746094 C 130.800781 246.195312 131.429688 246.648438 132.089844 247.027344 C 133.410156 247.757812 134.765625 248.414062 136.15625 248.96875 C 138.90625 250.046875 141.6875 250.910156 144.539062 251.570312 C 147.355469 252.265625 150.207031 252.820312 153.09375 253.304688 C 158.832031 254.273438 164.570312 254.898438 170.378906 255.316406 C 176.183594 255.730469 181.921875 255.90625 187.730469 255.90625 C 193.539062 255.90625 199.3125 255.695312 205.082031 255.28125 C 210.855469 254.863281 216.628906 254.171875 222.332031 253.199219 C 225.183594 252.714844 228.035156 252.125 230.851562 251.433594 C 233.703125 250.738281 236.488281 249.871094 239.199219 248.796875 C 240.589844 248.242188 241.910156 247.617188 243.234375 246.890625 C 243.894531 246.507812 244.519531 246.09375 245.144531 245.640625 C 245.773438 245.15625 246.363281 244.636719 246.882812 244.011719 C 247.441406 243.355469 247.859375 242.625 248.136719 241.792969 C 248.277344 241.378906 248.34375 240.925781 248.34375 240.476562 L 248.34375 239.367188 C 248.34375 237.945312 248.378906 236.488281 248.378906 235.066406 C 248.378906 229.3125 248.378906 223.558594 248.34375 217.800781 L 248.277344 209.167969 L 248.066406 191.902344 C 248.03125 189.027344 247.996094 186.148438 247.929688 183.269531 C 247.824219 177.515625 247.683594 171.761719 247.511719 166.003906 C 247.511719 165.3125 247.335938 164.652344 247.023438 164.027344 C 246.710938 163.4375 246.328125 162.847656 245.839844 162.363281 C 245.527344 162.015625 245.214844 161.707031 244.832031 161.394531 C 246.015625 161.117188 247.199219 160.839844 248.378906 160.527344 C 248.378906 160.527344 259.613281 163.335938 260.515625 169.402344 C 260.515625 169.4375 260.515625 169.472656 260.515625 169.539062 Z M 163.597656 186.597656 C 165.125 186.808594 166.65625 187.117188 168.152344 187.570312 L 168.152344 187.8125 C 166.621094 188.160156 165.054688 188.402344 163.492188 188.503906 C 162.726562 188.539062 161.925781 188.574219 161.160156 188.574219 C 160.394531 188.574219 159.597656 188.574219 158.832031 188.503906 C 158.066406 188.4375 157.300781 188.296875 156.5 188.160156 C 155.703125 188.019531 154.972656 187.917969 154.207031 187.742188 C 153.441406 187.570312 152.675781 187.464844 151.910156 187.363281 L 150.730469 187.152344 L 149.582031 186.910156 C 148.050781 186.632812 146.519531 186.183594 145.023438 185.800781 L 142.765625 185.109375 C 142 184.863281 141.269531 184.585938 140.539062 184.277344 C 140.367188 184.207031 140.15625 184.136719 139.984375 184.03125 C 139.808594 183.964844 139.636719 183.859375 139.460938 183.753906 C 139.113281 183.582031 138.765625 183.410156 138.417969 183.199219 C 138.070312 182.992188 137.722656 182.785156 137.410156 182.578125 C 137.097656 182.367188 136.75 182.160156 136.402344 181.917969 C 136.054688 181.675781 135.773438 181.46875 135.425781 181.226562 C 135.078125 180.980469 134.800781 180.703125 134.523438 180.460938 C 133.933594 179.941406 133.375 179.351562 132.921875 178.695312 L 133.097656 178.519531 C 134.417969 179.25 135.808594 179.90625 137.234375 180.460938 C 137.582031 180.601562 137.929688 180.738281 138.277344 180.878906 L 139.320312 181.292969 C 140.050781 181.535156 140.714844 181.8125 141.445312 182.058594 C 141.792969 182.195312 142.140625 182.300781 142.488281 182.4375 L 143.007812 182.644531 C 143.183594 182.714844 143.355469 182.785156 143.53125 182.855469 L 145.652344 183.582031 L 145.6875 183.582031 C 147.148438 183.964844 148.574219 184.414062 150.066406 184.691406 L 151.179688 184.933594 L 151.703125 185.039062 L 151.738281 185.039062 L 152.292969 185.140625 C 153.058594 185.28125 153.789062 185.386719 154.554688 185.488281 C 155.320312 185.59375 156.050781 185.628906 156.8125 185.699219 C 157.578125 185.765625 158.34375 185.800781 159.074219 185.90625 C 160.570312 186.078125 162.066406 186.320312 163.597656 186.597656 Z M 239.339844 239.195312 L 239.511719 239.367188 C 238.675781 240.753906 237.597656 241.96875 236.347656 243.007812 C 236.035156 243.25 235.722656 243.527344 235.410156 243.769531 C 235.09375 244.011719 234.746094 244.222656 234.398438 244.464844 C 234.050781 244.707031 233.703125 244.878906 233.355469 245.085938 C 233.007812 245.296875 232.660156 245.46875 232.277344 245.640625 C 230.816406 246.300781 229.289062 246.820312 227.722656 247.167969 C 227.339844 247.238281 226.957031 247.375 226.574219 247.445312 C 226.191406 247.515625 225.808594 247.582031 225.394531 247.652344 C 224.976562 247.722656 224.59375 247.757812 224.210938 247.792969 C 223.828125 247.828125 223.410156 247.859375 223.027344 247.859375 C 221.464844 247.929688 219.898438 248.105469 218.367188 248.382812 C 216.839844 248.660156 215.308594 249.179688 213.742188 249.457031 C 213.359375 249.523438 212.976562 249.558594 212.5625 249.59375 C 212.144531 249.628906 211.796875 249.628906 211.378906 249.628906 C 210.578125 249.628906 209.8125 249.59375 209.011719 249.558594 C 208.214844 249.492188 207.449219 249.386719 206.648438 249.246094 C 205.847656 249.109375 205.082031 248.902344 204.351562 248.625 L 204.351562 248.382812 C 205.152344 248.207031 205.917969 248.070312 206.683594 247.964844 C 207.449219 247.859375 208.214844 247.757812 208.980469 247.6875 C 209.742188 247.617188 210.507812 247.550781 211.273438 247.515625 C 212.039062 247.445312 212.804688 247.445312 213.570312 247.480469 C 215.097656 247.550781 216.664062 247.792969 218.230469 247.652344 C 218.996094 247.582031 219.757812 247.480469 220.523438 247.304688 C 221.289062 247.132812 222.019531 246.890625 222.75 246.613281 C 223.480469 246.371094 224.175781 246.058594 224.90625 245.816406 C 225.253906 245.675781 225.601562 245.539062 225.984375 245.433594 C 226.367188 245.332031 226.679688 245.15625 227.0625 245.054688 C 228.488281 244.53125 229.84375 243.945312 231.234375 243.355469 C 232.625 242.765625 233.984375 242.210938 235.304688 241.515625 C 236.625 240.824219 237.945312 239.992188 239.339844 239.195312 Z M 217.1875 202.097656 C 216.664062 201.992188 216.144531 201.886719 215.621094 201.714844 C 217.742188 201.332031 219.757812 200.953125 221.742188 200.46875 C 223.6875 200.015625 225.636719 199.390625 227.480469 198.664062 C 228.417969 198.28125 229.324219 197.867188 230.191406 197.414062 C 230.644531 197.207031 231.0625 196.929688 231.511719 196.6875 C 231.964844 196.445312 232.382812 196.167969 232.765625 195.890625 C 234.46875 194.710938 236.035156 193.394531 237.496094 191.9375 C 237.425781 192.179688 237.320312 192.421875 237.21875 192.699219 L 237.078125 193.082031 C 237.007812 193.222656 236.972656 193.324219 236.902344 193.429688 C 236.800781 193.671875 236.660156 193.878906 236.554688 194.121094 L 236.519531 194.15625 C 236.382812 194.363281 236.242188 194.609375 236.105469 194.816406 L 235.859375 195.128906 L 235.824219 195.164062 L 235.582031 195.472656 C 235.410156 195.683594 235.234375 195.925781 235.0625 196.132812 C 234.714844 196.550781 234.332031 196.964844 233.914062 197.347656 C 233.703125 197.519531 233.53125 197.726562 233.289062 197.902344 L 232.660156 198.457031 C 232.210938 198.800781 231.757812 199.113281 231.304688 199.390625 C 230.816406 199.667969 230.367188 199.945312 229.878906 200.191406 L 229.84375 200.191406 L 229.113281 200.535156 C 228.871094 200.675781 228.59375 200.746094 228.347656 200.847656 C 225.289062 202.0625 222.019531 202.546875 218.75 202.269531 C 218.265625 202.234375 217.707031 202.164062 217.1875 202.097656 Z M 217.1875 202.097656 " fill-opacity="1" fill-rule="nonzero"/></g></svg>